<svg xmlns="http://www.w3.org/2000/svg" xmlns:xlink="http://www.w3.org/1999/xlink" width="1080" zoomAndPan="magnify" viewBox="0 0 810 809.999993" height="1080" preserveAspectRatio="xMidYMid meet" version="1.0"><defs><clipPath id="a46c9fa994"><path d="M 149 81 L 659.414062 81 L 659.414062 728.808594 L 149 728.808594 Z M 149 81 " clip-rule="nonzero"/></clipPath><clipPath id="b55a5f7f6f"><path d="M 235 219 L 402 219 L 402 526 L 235 526 Z M 235 219 " clip-rule="nonzero"/></clipPath><clipPath id="8e9b1f1289"><path d="M 272.515625 217.117188 L 492.222656 384.058594 L 368.09375 547.417969 L 148.386719 380.476562 Z M 272.515625 217.117188 " clip-rule="nonzero"/></clipPath><clipPath id="ce20dec7ef"><path d="M 272.515625 217.117188 L 492.222656 384.058594 L 368.09375 547.417969 L 148.386719 380.476562 Z M 272.515625 217.117188 " clip-rule="nonzero"/></clipPath><clipPath id="db8c8ed334"><path d="M 413 213 L 573 213 L 573 525 L 413 525 Z M 413 213 " clip-rule="nonzero"/></clipPath><clipPath id="7a363c8435"><path d="M 662.566406 362.839844 L 457.460938 547.421875 L 320.210938 394.917969 L 525.320312 210.332031 Z M 662.566406 362.839844 " clip-rule="nonzero"/></clipPath><clipPath id="c9d57e7dc3"><path d="M 525.320312 210.332031 L 320.210938 394.917969 L 457.460938 547.421875 L 662.566406 362.839844 Z M 525.320312 210.332031 " clip-rule="nonzero"/></clipPath></defs><g clip-path="url(#a46c9fa994)"><path fill="#48d16e" d="M 157.703125 152.460938 L 401.582031 81.710938 C 403.378906 81.1875 405.289062 81.175781 407.097656 81.667969 L 651.929688 148.644531 C 656.398438 149.867188 659.476562 153.957031 659.414062 158.59375 L 655.707031 436.988281 C 655.703125 437.441406 655.664062 437.894531 655.597656 438.339844 C 651.300781 467.453125 646.65625 497.367188 605.1875 546.121094 C 564.710938 593.699219 488.378906 660.105469 413.085938 725.644531 C 409.21875 729.007812 403.449219 728.972656 399.625 725.554688 L 399.628906 725.554688 L 398.625 724.660156 C 332.703125 665.742188 266.382812 606.445312 224.742188 562.246094 C 182.039062 516.921875 164.324219 486.28125 156.234375 420.835938 C 148.347656 357.03125 149.375 259.015625 150.367188 162.125 C 150.410156 157.636719 153.394531 153.710938 157.703125 152.460938 M 163.371094 172 L 170.710938 162.332031 C 169.710938 259.859375 168.746094 356.21875 176.425781 418.339844 C 183.898438 478.804688 199.300781 505.574219 239.550781 548.296875 C 280.449219 591.707031 345.980469 650.320312 412.183594 709.488281 L 412.179688 709.488281 L 413.183594 710.386719 L 399.726562 710.296875 C 475.605469 644.25 550.457031 579.058594 589.6875 532.9375 C 627.925781 487.988281 631.527344 462.074219 635.472656 435.367188 L 635.363281 436.71875 L 639.070312 158.320312 L 646.558594 168.269531 L 401.730469 101.292969 L 407.25 101.25 Z M 163.371094 172 " fill-opacity="1" fill-rule="nonzero"/></g><path fill="#48d16e" d="M 404.539062 121.382812 L 404.378906 121.386719 L 185.722656 184.820312 C 185.578125 184.859375 185.488281 185 185.511719 185.148438 L 185.535156 185.148438 C 184.632812 273.851562 183.957031 360.8125 190.953125 417.390625 C 197.949219 473.988281 212.382812 499.074219 250.046875 539.050781 C 287.191406 578.476562 346.074219 631.324219 406.128906 685.007812 C 406.1875 685.058594 406.257812 685.085938 406.328125 685.085938 C 406.371094 685.085938 406.410156 685.078125 406.449219 685.058594 C 406.476562 685.046875 406.503906 685.03125 406.527344 685.011719 L 406.523438 685.011719 C 475.261719 625.167969 542.210938 566.539062 577.816406 524.679688 C 613.113281 483.1875 616.894531 459 620.53125 434.359375 L 620.5 434.359375 C 620.554688 434.304688 620.589844 434.230469 620.59375 434.148438 L 623.953125 181.640625 L 623.953125 181.636719 C 623.953125 181.5 623.863281 181.382812 623.734375 181.347656 Z M 404.539062 121.382812 " fill-opacity="1" fill-rule="nonzero"/><g clip-path="url(#b55a5f7f6f)"><g clip-path="url(#8e9b1f1289)"><g clip-path="url(#ce20dec7ef)"><path fill="#ffffff" d="M 251.875 245.957031 C 253.945312 253.007812 255.738281 259.953125 258.050781 266.714844 C 260.375 273.519531 263.835938 279.820312 267.867188 285.835938 C 263.871094 271.128906 264.46875 256.449219 267.78125 241.800781 C 269.484375 234.273438 271.621094 226.871094 275.003906 219.828125 C 276.632812 220.34375 276.113281 221.367188 276.066406 222.253906 C 275.824219 226.761719 275.296875 231.277344 275.425781 235.777344 C 275.824219 250.109375 279.820312 263.574219 285.753906 276.515625 C 293.828125 294.136719 304.507812 310.117188 316.8125 325.03125 C 326.898438 337.253906 337.9375 348.578125 349.742188 359.132812 C 360.414062 368.675781 371.28125 378 381.882812 387.609375 C 386.195312 391.511719 390.230469 395.679688 394 400.105469 C 402.8125 410.46875 403.582031 421.875 397.3125 433.734375 C 395.257812 437.609375 392.585938 441.167969 390.050781 444.773438 C 388.136719 447.503906 385.945312 450.039062 383.964844 452.722656 C 378.96875 459.476562 377.609375 466.90625 379.761719 475.050781 C 381.675781 482.296875 384.765625 489.027344 388.460938 495.492188 C 390.597656 499.222656 393.003906 502.804688 395.332031 506.417969 C 396.972656 508.960938 397.027344 509.210938 394.609375 511.140625 C 392.160156 513.113281 389.492188 514.710938 386.597656 515.9375 C 383.703125 517.164062 380.695312 517.96875 377.574219 518.355469 C 374.898438 518.703125 372.332031 519.441406 369.875 520.5625 C 367.519531 521.625 365.21875 522.8125 362.832031 523.792969 C 357.742188 525.890625 352.558594 526.007812 347.382812 524.113281 C 345.003906 523.242188 344.800781 522.566406 345.894531 519.890625 C 341.574219 520.609375 337.453125 520.269531 333.589844 518.335938 C 332.421875 517.777344 331.339844 517.085938 330.34375 516.265625 C 328.863281 514.996094 328.957031 514.042969 330.511719 512.910156 C 331.617188 512.101562 332.761719 511.34375 333.683594 510.003906 C 332.535156 510.320312 331.390625 510.675781 330.230469 510.945312 C 325.9375 511.945312 321.839844 511.5 318.234375 508.851562 C 316.902344 507.878906 315.902344 506.453125 314.5 504.96875 C 317.4375 502.808594 319.996094 500.9375 322.554688 499.058594 L 322.363281 498.578125 C 321.28125 498.824219 320.199219 499.066406 319.117188 499.324219 C 312.828125 500.820312 306.933594 499.808594 301.429688 496.484375 C 300.492188 495.941406 299.632812 495.304688 298.84375 494.5625 C 296.746094 492.511719 297.039062 491.140625 299.742188 490.050781 C 302.445312 488.957031 305.144531 487.914062 307.835938 486.824219 C 308.496094 486.554688 309.117188 486.179688 310.46875 485.492188 C 308.921875 485.339844 308.140625 485.210938 307.355469 485.191406 C 297.59375 484.933594 289.839844 480.570312 283.410156 473.496094 C 283.121094 473.179688 282.71875 472.898438 282.574219 472.523438 C 282.203125 471.566406 281.558594 470.496094 281.722656 469.597656 C 281.984375 468.191406 283.472656 468.332031 284.640625 468.152344 C 288.25 467.589844 291.851562 466.988281 295.449219 466.351562 C 296.023438 466.25 296.5625 465.964844 297.816406 465.515625 C 296.664062 465.300781 296.28125 465.183594 295.894531 465.15625 C 284.367188 464.4375 275.59375 458.726562 268.460938 450.058594 C 266.824219 448.066406 265.339844 445.953125 263.847656 443.851562 C 263.34375 443.144531 262.953125 442.382812 262.675781 441.5625 C 261.984375 439.523438 262.773438 438.492188 264.976562 438.507812 C 265.609375 438.511719 266.242188 438.742188 266.878906 438.792969 C 270.808594 439.109375 274.734375 439.394531 278.765625 439.082031 C 277.910156 438.679688 277.066406 438.261719 276.203125 437.878906 C 262.335938 431.765625 253.484375 420.902344 247.46875 407.398438 C 246.785156 405.871094 245.695312 404 247.101562 402.546875 C 248.703125 400.890625 250.503906 402.371094 252.144531 403.042969 C 259.035156 405.851562 266.246094 407.433594 273.738281 408.417969 C 271.792969 407.296875 269.871094 406.121094 267.890625 405.058594 C 257.089844 399.242188 248.800781 390.769531 242.488281 380.402344 C 240.453125 377.054688 239.222656 373.183594 237.898438 369.449219 C 237.3125 367.789062 236.921875 365.636719 238.644531 364.351562 C 240.429688 363.019531 242.082031 364.484375 243.707031 365.265625 C 245.152344 365.960938 246.589844 366.71875 248.105469 367.242188 C 256.039062 369.984375 263.996094 372.65625 271.9375 375.347656 C 272.617188 375.605469 273.3125 375.683594 274.03125 375.578125 C 273.378906 375.015625 272.757812 374.414062 272.074219 373.894531 C 265.652344 368.960938 259.496094 363.660156 254.507812 357.300781 C 242.734375 342.28125 235.160156 325.5625 235.183594 306.042969 C 235.183594 304.355469 235.390625 302.667969 235.527344 300.597656 C 236.242188 300.996094 236.925781 301.136719 237.15625 301.539062 C 242.777344 311.296875 250.804688 318.90625 259.574219 326.769531 C 259.085938 325.679688 258.941406 325.117188 258.617188 324.6875 C 248.800781 311.578125 245.453125 296.546875 245.972656 280.546875 C 246.199219 273.476562 247.328125 266.429688 248.222656 259.386719 C 248.683594 255.761719 249.472656 252.175781 250.207031 248.601562 C 250.410156 247.640625 250.300781 246.355469 251.875 245.957031 Z M 362.289062 474.347656 C 358.691406 473.1875 355.316406 471.804688 351.804688 471.054688 C 348.117188 470.265625 344.367188 470.820312 340.6875 471.738281 C 343.15625 480.8125 352.875 487.9375 360.597656 488.042969 C 363.007812 488.074219 365.417969 489 367.792969 489.65625 C 368.355469 489.8125 368.765625 490.519531 369.25 490.972656 L 369.003906 491.648438 C 368.246094 491.609375 367.460938 491.691406 366.738281 491.515625 C 361.425781 490.195312 356.261719 490.859375 351.171875 492.589844 C 350.523438 492.8125 349.945312 493.257812 349.089844 493.730469 C 353.667969 499.027344 359.078125 501.480469 365.78125 500.945312 C 367.175781 500.839844 368.5625 500.5 369.949219 500.546875 C 371.082031 500.582031 373.035156 499.773438 373.085938 501.632812 C 373.132812 503.183594 371.214844 502.570312 370.15625 502.777344 C 367.214844 503.359375 364.371094 504.101562 361.828125 505.886719 C 364.796875 509.339844 367.644531 510.65625 371.933594 510.59375 C 373.328125 510.578125 374.714844 510.265625 376.105469 510.25 C 376.566406 510.246094 377.039062 510.726562 377.875 511.1875 C 376.980469 511.628906 376.539062 512.007812 376.058594 512.058594 C 373.292969 512.371094 370.527344 512.671875 367.753906 512.824219 C 366.589844 512.886719 365.480469 512.710938 364.96875 514.15625 C 374.40625 516.433594 389.179688 513.472656 393.746094 508.535156 C 390.265625 503.738281 386.667969 499.050781 383.375 494.164062 C 379.085938 487.808594 375.53125 481.054688 373.496094 473.589844 C 371.484375 466.214844 372.085938 459.078125 375.511719 452.234375 C 376.597656 450.128906 377.785156 448.085938 379.078125 446.097656 C 382.074219 441.375 385.488281 436.878906 388.109375 431.953125 C 395.273438 418.480469 391.878906 412.285156 384.84375 404.367188 C 384.773438 404.289062 384.695312 404.210938 384.617188 404.140625 C 377.695312 397.835938 370.929688 391.359375 363.832031 385.273438 C 350.097656 373.492188 336.425781 361.667969 324.003906 348.476562 C 311.054688 334.722656 299.328125 320.027344 289.902344 303.621094 C 280.082031 286.53125 273.414062 268.351562 271.945312 248.519531 C 271.914062 248.113281 271.757812 247.71875 271.664062 247.3125 C 271.035156 248.671875 270.921875 249.933594 270.855469 251.203125 C 270.042969 267.066406 273.5625 282.234375 278.558594 297.113281 C 280.882812 304.054688 283.710938 310.839844 288.167969 316.757812 C 294.699219 325.433594 301.34375 334.027344 307.933594 342.660156 C 308.601562 343.539062 309.230469 344.449219 309.886719 345.355469 C 308.242188 346.445312 307.777344 345.242188 307.160156 344.652344 C 298.660156 336.558594 290.546875 328.09375 282.984375 319.117188 C 277.296875 312.382812 271.574219 305.683594 267.214844 297.929688 C 260.421875 285.851562 254.78125 273.347656 252.097656 259.664062 C 252.03125 259.324219 251.839844 259.007812 251.679688 258.613281 C 251.386719 258.84375 251.253906 258.890625 251.242188 258.96875 C 251.132812 259.375 251.046875 259.789062 250.988281 260.210938 C 248.285156 284.164062 253.886719 306.167969 266.722656 326.417969 C 271.578125 334.070312 276.71875 341.527344 285.171875 345.789062 C 285.359375 345.894531 285.535156 346.019531 285.699219 346.160156 C 296.871094 354.945312 308.191406 363.550781 319.148438 372.59375 C 325.527344 377.855469 331.324219 383.820312 337.378906 389.472656 C 338.058594 390.105469 338.699219 390.777344 339.339844 391.402344 C 342.445312 389.003906 343.277344 388.871094 346.566406 390.375 C 347.636719 390.882812 348.664062 391.464844 349.648438 392.125 C 352.714844 394.121094 355.746094 396.175781 358.8125 398.171875 C 359.34375 398.515625 359.988281 398.6875 360.578125 398.941406 C 356.253906 393.832031 351.597656 389.222656 347.046875 384.515625 C 342.40625 379.722656 337.84375 374.859375 333.289062 369.980469 C 328.875 365.25 324 360.949219 319.558594 355.964844 C 321.445312 354.875 322.1875 356.128906 322.996094 356.789062 C 329.832031 362.375 336.601562 368.042969 343.441406 373.621094 C 350.726562 379.558594 357.375 386.097656 363.117188 393.566406 C 369.121094 401.382812 374.296875 409.632812 377.140625 419.175781 C 378.03125 422.171875 377.617188 425.210938 377.734375 428.378906 C 376.917969 428.109375 376.261719 427.753906 376.050781 427.21875 C 375.417969 425.621094 374.988281 423.945312 374.425781 422.316406 C 372.171875 415.804688 368.339844 410.464844 362.503906 406.710938 C 359.433594 404.734375 356.257812 402.90625 353.082031 401.101562 C 350.488281 399.625 347.824219 398.28125 344.765625 396.652344 C 344.777344 398.214844 344.71875 399.265625 344.800781 400.304688 C 345.636719 410.925781 350.425781 419.8125 356.960938 427.925781 C 359.722656 431.355469 362.546875 434.730469 365.289062 438.179688 C 365.773438 438.789062 365.964844 439.628906 366.511719 440.851562 C 365.417969 440.648438 364.746094 440.714844 364.363281 440.410156 C 363.699219 439.886719 363.207031 439.148438 362.660156 438.484375 C 356.390625 430.917969 348.609375 425.550781 339.316406 422.371094 C 338.667969 422.148438 337.972656 422.0625 336.957031 421.835938 C 338.0625 433.265625 342.480469 442.382812 351.875 448.789062 C 354.09375 450.296875 356.253906 451.90625 358.351562 453.578125 C 358.898438 454.015625 359.113281 454.871094 359.480469 455.53125 C 359.273438 455.746094 359.066406 455.960938 358.855469 456.175781 C 357.90625 455.652344 356.902344 455.214844 356.023438 454.59375 C 350.34375 450.59375 344.042969 448.328125 337.144531 447.714844 C 335.90625 447.609375 334.648438 447.65625 332.882812 447.621094 C 336.539062 457.289062 342.445312 464.050781 351.703125 467.746094 C 354.785156 468.972656 357.84375 470.273438 360.855469 471.664062 C 361.734375 472.085938 362.898438 472.621094 362.289062 474.347656 Z M 237.730469 308.175781 C 237.984375 309.804688 238.171875 311.28125 238.441406 312.730469 C 239.695312 319.222656 241.84375 325.40625 244.882812 331.277344 C 248.683594 338.695312 253.71875 345.238281 258.816406 351.792969 C 264.851562 359.546875 271.121094 367.027344 278.511719 373.519531 C 282.964844 377.433594 287.542969 381.183594 292.976562 383.722656 C 295.992188 385.136719 299.039062 386.503906 301.953125 388.113281 C 318.390625 397.195312 334.117188 407.316406 347.75 420.425781 C 347.269531 419.351562 346.714844 418.3125 346.085938 417.316406 C 341.976562 410.824219 339.378906 403.820312 339.148438 396.085938 C 339.09375 394.3125 338.148438 393.410156 337.007812 392.394531 C 324.554688 381.339844 310.660156 372.285156 296.808594 363.167969 C 291.59375 359.734375 286.117188 356.675781 281.066406 353.015625 C 270.40625 345.296875 260.625 336.503906 252.058594 326.488281 C 247.117188 320.707031 242.65625 314.507812 237.730469 308.175781 Z M 241.15625 366.789062 L 240.59375 367.238281 C 240.917969 368.3125 241.160156 369.425781 241.578125 370.457031 C 243.523438 375.324219 246.644531 379.417969 250.179688 383.210938 C 256.820312 390.339844 264.625 396.097656 272.492188 401.726562 C 280.558594 407.488281 289.203125 412.171875 298.878906 414.917969 C 308.820312 417.722656 318.496094 421.320312 327.648438 426.164062 C 329.382812 427.082031 331.09375 428.039062 333.179688 429.175781 C 332.601562 426.410156 332.039062 424.230469 331.707031 422.019531 C 331.03125 417.578125 331.574219 416.597656 335.539062 414.664062 C 334.894531 414.171875 334.351562 413.65625 333.722656 413.296875 C 326.835938 409.324219 320.03125 405.195312 313.011719 401.476562 C 306.941406 398.257812 300.5625 395.613281 294.421875 392.542969 C 283.652344 387.164062 273.015625 381.515625 262.203125 376.234375 C 255.304688 372.847656 248.183594 369.921875 241.15625 366.789062 Z M 342.050781 444.277344 C 339.679688 440.609375 337.539062 437.183594 335.265625 433.851562 C 334.699219 433.023438 333.773438 432.332031 332.867188 431.859375 C 325.09375 427.828125 316.839844 425.078125 308.363281 422.996094 C 302.519531 421.558594 296.558594 420.546875 290.785156 418.875 C 279.015625 415.46875 267.28125 411.925781 255.980469 407.117188 C 254.15625 406.339844 252.226562 405.800781 249.683594 404.933594 C 250.605469 406.632812 251.109375 407.679688 251.726562 408.679688 C 255.855469 415.472656 261.007812 421.363281 267.59375 425.84375 C 272.121094 428.921875 276.746094 431.917969 281.566406 434.503906 C 287.53125 437.703125 293.785156 440.097656 300.636719 441.121094 C 307.628906 442.167969 314.5 444.0625 321.394531 445.710938 C 323.449219 446.203125 325.398438 447.125 327.382812 447.851562 C 329.210938 443.277344 330.378906 442.554688 335.253906 443.140625 C 337.472656 443.394531 339.671875 443.867188 342.050781 444.277344 Z M 335.773438 461.828125 C 333.503906 458.671875 331.320312 456 329.574219 453.058594 C 328.601562 451.421875 327.421875 450.566406 325.722656 450.007812 C 319.851562 448.066406 313.789062 447.085938 307.679688 446.613281 C 294.242188 445.601562 280.984375 443.351562 267.710938 441.179688 C 267.054688 441.070312 266.367188 441.113281 265.046875 441.054688 C 266.234375 442.542969 267.007812 443.539062 267.816406 444.507812 C 273.460938 451.273438 280.617188 455.972656 288.652344 459.34375 C 295.652344 462.28125 302.996094 463.289062 310.484375 461.96875 C 318.808594 460.507812 327.089844 459.472656 335.773438 461.828125 Z M 285.21875 470.636719 L 285.097656 471.460938 C 294.414062 479.050781 304.980469 482.945312 317.1875 481.953125 C 317.832031 481.882812 318.457031 481.722656 319.054688 481.476562 C 324.957031 479.15625 330.875 476.964844 337.5 477.457031 C 336.90625 475.4375 336.210938 473.742188 335.929688 471.976562 C 335.535156 469.484375 336.628906 468.117188 339.089844 467.585938 C 340.007812 467.382812 340.949219 467.273438 342.472656 467.023438 C 341.371094 466.546875 340.820312 466.257812 340.242188 466.070312 C 332.980469 463.691406 325.660156 463.773438 318.261719 465.441406 C 308.277344 467.6875 298.210938 469.425781 287.992188 470.222656 C 287.0625 470.292969 286.144531 470.496094 285.21875 470.636719 Z M 348.019531 487.597656 L 348.183594 486.867188 C 345.800781 485.054688 343.460938 483.167969 341 481.464844 C 340.03125 480.800781 338.964844 480.394531 337.800781 480.242188 C 333.816406 479.78125 330.214844 481.269531 326.574219 482.636719 C 319.644531 485.253906 312.671875 487.761719 305.71875 490.328125 C 304.160156 490.898438 302.617188 491.546875 300.882812 492.230469 C 303.605469 494.5625 306.558594 495.679688 310.332031 495.972656 C 313.886719 496.261719 317.425781 496.125 320.949219 495.558594 C 324.46875 494.996094 327.875 494.023438 331.160156 492.640625 C 336.609375 490.363281 341.910156 487.722656 348.019531 487.597656 Z M 344.5 490.828125 C 342.867188 491.484375 341.507812 491.875 340.304688 492.539062 C 333.320312 496.347656 326.359375 500.199219 319.425781 504.09375 C 318.929688 504.375 318.59375 504.902344 318.101562 505.375 C 320.394531 507.796875 323.085938 508.246094 325.957031 508.089844 C 331.1875 507.804688 336.085938 506.332031 340.808594 504.074219 C 343.222656 502.921875 345.78125 502.078125 348.277344 501.105469 C 348.921875 500.851562 349.574219 500.628906 350.359375 500.34375 C 344.246094 495.019531 344.246094 495.019531 344.503906 490.824219 Z M 358.730469 503.335938 C 355.65625 502.835938 352.976562 503.054688 350.433594 503.960938 C 343.8125 506.316406 338.226562 510.460938 332.382812 514.390625 C 335.058594 516.378906 337.382812 517.015625 341.035156 516.867188 C 348.351562 516.585938 355 513.871094 361.945312 511.359375 C 359.921875 508.980469 356.296875 507.472656 358.734375 503.332031 Z M 367.992188 518.335938 L 360.167969 514.898438 C 354.304688 517.367188 350.742188 519.617188 349.335938 521.898438 C 355.949219 523.378906 361.515625 520.113281 367.996094 518.332031 Z M 367.992188 518.335938 " fill-opacity="1" fill-rule="nonzero"/></g></g></g><g clip-path="url(#db8c8ed334)"><g clip-path="url(#7a363c8435)"><g clip-path="url(#c9d57e7dc3)"><path fill="#ffffff" d="M 548.28125 237.363281 C 546.800781 244.5625 545.589844 251.628906 543.847656 258.5625 C 542.09375 265.535156 539.167969 272.101562 535.648438 278.429688 C 538.410156 263.441406 536.597656 248.863281 532.085938 234.539062 C 529.761719 227.179688 527.019531 219.980469 523.0625 213.242188 C 521.480469 213.890625 522.085938 214.867188 522.207031 215.746094 C 522.820312 220.21875 523.722656 224.679688 523.96875 229.171875 C 524.757812 243.484375 521.890625 257.238281 517.054688 270.625 C 510.46875 288.855469 501.148438 305.664062 490.125 321.550781 C 481.085938 334.566406 471.023438 346.769531 460.136719 358.265625 C 450.289062 368.65625 440.234375 378.851562 430.464844 389.308594 C 426.492188 393.554688 422.8125 398.042969 419.425781 402.769531 C 411.503906 413.824219 411.683594 425.253906 418.914062 436.554688 C 421.28125 440.246094 424.242188 443.570312 427.066406 446.953125 C 429.199219 449.515625 431.59375 451.859375 433.792969 454.367188 C 439.328125 460.683594 441.300781 467.976562 439.832031 476.273438 C 438.523438 483.652344 436.003906 490.617188 432.855469 497.367188 C 431.035156 501.257812 428.9375 505.03125 426.917969 508.824219 C 425.492188 511.492188 425.457031 511.746094 428.027344 513.46875 C 430.628906 515.230469 433.421875 516.601562 436.410156 517.585938 C 439.394531 518.566406 442.457031 519.121094 445.597656 519.246094 C 448.296875 519.371094 450.917969 519.894531 453.457031 520.808594 C 455.894531 521.671875 458.285156 522.664062 460.742188 523.441406 C 465.992188 525.109375 471.164062 524.800781 476.164062 522.480469 C 478.464844 521.417969 478.613281 520.726562 477.296875 518.152344 C 481.664062 518.507812 485.742188 517.824219 489.433594 515.578125 C 490.546875 514.925781 491.570312 514.148438 492.496094 513.25 C 493.867188 511.859375 493.691406 510.917969 492.046875 509.917969 C 490.878906 509.203125 489.675781 508.542969 488.648438 507.285156 C 489.820312 507.503906 490.988281 507.765625 492.167969 507.9375 C 496.527344 508.578125 500.574219 507.796875 503.949219 504.855469 C 505.195312 503.777344 506.070312 502.273438 507.347656 500.675781 C 504.242188 498.769531 501.539062 497.113281 498.828125 495.453125 L 498.980469 494.957031 C 500.082031 495.117188 501.179688 495.265625 502.277344 495.433594 C 508.671875 496.402344 514.457031 494.90625 519.671875 491.136719 C 520.558594 490.519531 521.363281 489.8125 522.085938 489.007812 C 524.007812 486.789062 523.601562 485.449219 520.820312 484.582031 C 518.035156 483.71875 515.257812 482.90625 512.484375 482.042969 C 511.804688 481.828125 511.15625 481.507812 509.75 480.933594 C 511.277344 480.652344 512.046875 480.460938 512.828125 480.375 C 522.535156 479.308594 529.902344 474.316406 535.722656 466.734375 C 535.984375 466.394531 536.359375 466.082031 536.476562 465.695312 C 536.765625 464.710938 537.316406 463.589844 537.078125 462.707031 C 536.703125 461.328125 535.230469 461.59375 534.050781 461.511719 C 530.40625 461.25 526.765625 460.949219 523.132812 460.609375 C 522.550781 460.558594 521.988281 460.316406 520.703125 459.976562 C 521.832031 459.664062 522.207031 459.519531 522.585938 459.457031 C 534.015625 457.785156 542.285156 451.367188 548.675781 442.140625 C 550.140625 440.019531 551.445312 437.785156 552.757812 435.566406 C 553.199219 434.824219 553.527344 434.03125 553.738281 433.191406 C 554.253906 431.101562 553.382812 430.136719 551.191406 430.339844 C 550.558594 430.394531 549.949219 430.675781 549.316406 430.78125 C 545.425781 431.417969 541.539062 432.03125 537.496094 432.054688 C 538.3125 431.582031 539.121094 431.09375 539.949219 430.640625 C 553.265625 423.398438 561.183594 411.839844 566.058594 397.882812 C 566.609375 396.304688 567.542969 394.351562 566.023438 393.019531 C 564.289062 391.5 562.617188 393.125 561.039062 393.929688 C 554.402344 397.300781 547.347656 399.476562 539.960938 401.078125 C 541.808594 399.796875 543.625 398.46875 545.511719 397.242188 C 555.792969 390.550781 563.351562 381.421875 568.78125 370.566406 C 570.53125 367.0625 571.441406 363.101562 572.445312 359.273438 C 572.894531 357.570312 573.105469 355.390625 571.285156 354.253906 C 569.394531 353.074219 567.867188 354.671875 566.3125 355.582031 C 564.929688 356.394531 563.558594 357.273438 562.09375 357.917969 C 554.414062 361.308594 546.707031 364.632812 539.015625 367.972656 C 538.359375 368.285156 537.671875 368.417969 536.949219 368.375 C 537.550781 367.761719 538.121094 367.109375 538.757812 366.535156 C 544.75 361.085938 550.445312 355.292969 554.886719 348.539062 C 565.375 332.597656 571.539062 315.308594 569.898438 295.855469 C 569.753906 294.175781 569.410156 292.511719 569.101562 290.460938 C 568.421875 290.914062 567.753906 291.113281 567.558594 291.53125 C 562.765625 301.722656 555.394531 309.972656 547.304688 318.535156 C 547.707031 317.410156 547.804688 316.835938 548.089844 316.382812 C 556.785156 302.503906 558.875 287.246094 557.03125 271.34375 C 556.21875 264.316406 554.511719 257.386719 553.03125 250.441406 C 552.273438 246.867188 551.1875 243.363281 550.160156 239.859375 C 549.878906 238.917969 549.878906 237.628906 548.28125 237.363281 Z M 457.183594 474.121094 C 460.671875 472.671875 463.921875 471.011719 467.359375 469.972656 C 470.96875 468.878906 474.753906 469.121094 478.496094 469.734375 C 476.785156 478.976562 467.695312 486.886719 460.003906 487.628906 C 457.605469 487.863281 455.28125 488.984375 452.96875 489.835938 C 452.417969 490.039062 452.070312 490.773438 451.628906 491.265625 L 451.925781 491.917969 C 452.675781 491.820312 453.46875 491.835938 454.175781 491.601562 C 459.359375 489.84375 464.5625 490.078125 469.777344 491.382812 C 470.441406 491.550781 471.050781 491.941406 471.945312 492.347656 C 467.824219 498.003906 462.632812 500.898438 455.910156 500.921875 C 454.507812 500.929688 453.097656 500.703125 451.722656 500.867188 C 450.597656 501 448.585938 500.355469 448.6875 502.210938 C 448.769531 503.761719 450.632812 502.988281 451.699219 503.109375 C 454.679688 503.441406 457.578125 503.949219 460.257812 505.515625 C 457.585938 509.203125 454.859375 510.75 450.578125 511.046875 C 449.1875 511.140625 447.777344 510.949219 446.394531 511.046875 C 445.933594 511.082031 445.5 511.601562 444.707031 512.128906 C 445.632812 512.496094 446.109375 512.835938 446.589844 512.847656 C 449.371094 512.929688 452.152344 513 454.929688 512.917969 C 456.09375 512.886719 457.183594 512.621094 457.8125 514.015625 C 448.597656 517.066406 433.628906 515.339844 428.667969 510.804688 C 431.742188 505.734375 434.9375 500.761719 437.8125 495.621094 C 441.5625 488.929688 444.542969 481.90625 445.953125 474.296875 C 447.347656 466.78125 446.15625 459.71875 442.171875 453.183594 C 440.917969 451.175781 439.5625 449.234375 438.113281 447.363281 C 434.734375 442.90625 430.957031 438.707031 427.9375 434.015625 C 419.679688 421.183594 422.546875 414.730469 428.902344 406.253906 C 428.96875 406.167969 429.039062 406.085938 429.113281 406.007812 C 435.484375 399.152344 441.691406 392.140625 448.261719 385.484375 C 460.972656 372.605469 473.613281 359.6875 484.898438 345.511719 C 496.664062 330.730469 507.132812 315.113281 515.164062 297.984375 C 523.535156 280.136719 528.671875 261.46875 528.492188 241.578125 C 528.488281 241.171875 528.613281 240.765625 528.671875 240.355469 C 529.410156 241.65625 529.628906 242.90625 529.796875 244.164062 C 531.925781 259.910156 529.671875 275.3125 525.929688 290.554688 C 524.191406 297.667969 521.933594 304.664062 517.984375 310.929688 C 512.191406 320.117188 506.285156 329.230469 500.433594 338.382812 C 499.839844 339.3125 499.289062 340.269531 498.710938 341.230469 C 500.4375 342.179688 500.800781 340.941406 501.371094 340.304688 C 509.171875 331.535156 516.550781 322.421875 523.34375 312.851562 C 528.453125 305.667969 533.601562 298.519531 537.304688 290.429688 C 543.070312 277.832031 547.65625 264.902344 549.195312 251.042969 C 549.234375 250.699219 549.394531 250.367188 549.523438 249.960938 C 549.832031 250.167969 549.972656 250.199219 549.988281 250.277344 C 550.132812 250.675781 550.253906 251.082031 550.347656 251.492188 C 555.023438 275.144531 551.265625 297.535156 540.15625 318.777344 C 535.953125 326.808594 531.449219 334.664062 523.375 339.613281 C 523.195312 339.734375 523.03125 339.871094 522.878906 340.027344 C 512.476562 349.707031 501.910156 359.21875 491.738281 369.140625 C 485.816406 374.914062 480.535156 381.339844 474.96875 387.476562 C 474.347656 388.164062 473.761719 388.882812 473.175781 389.558594 C 469.882812 387.429688 469.042969 387.367188 465.890625 389.136719 C 464.863281 389.730469 463.890625 390.398438 462.964844 391.132812 C 460.074219 393.378906 457.222656 395.675781 454.332031 397.921875 C 453.832031 398.308594 453.203125 398.535156 452.636719 398.832031 C 456.523438 393.382812 460.777344 388.40625 464.925781 383.335938 C 469.152344 378.175781 473.296875 372.949219 477.429688 367.710938 C 481.4375 362.628906 485.9375 357.9375 489.949219 352.605469 C 487.980469 351.675781 487.34375 352.984375 486.59375 353.710938 C 480.246094 359.84375 473.96875 366.054688 467.613281 372.179688 C 460.847656 378.703125 454.761719 385.773438 449.664062 393.6875 C 444.324219 401.976562 439.851562 410.625 437.808594 420.375 C 437.167969 423.433594 437.832031 426.425781 437.980469 429.59375 C 438.769531 429.257812 439.394531 428.847656 439.5625 428.296875 C 440.058594 426.65625 440.347656 424.945312 440.773438 423.277344 C 442.480469 416.601562 445.855469 410.960938 451.363281 406.738281 C 454.257812 404.511719 457.269531 402.429688 460.285156 400.363281 C 462.746094 398.679688 465.292969 397.121094 468.203125 395.242188 C 468.324219 396.800781 468.46875 397.84375 468.472656 398.886719 C 468.519531 409.539062 464.484375 418.792969 458.644531 427.421875 C 456.175781 431.066406 453.644531 434.664062 451.199219 438.328125 C 450.765625 438.976562 450.640625 439.832031 450.199219 441.09375 C 451.269531 440.800781 451.945312 440.808594 452.304688 440.476562 C 452.921875 439.898438 453.351562 439.121094 453.839844 438.414062 C 459.460938 430.355469 466.769531 424.359375 475.765625 420.421875 C 476.394531 420.144531 477.082031 420 478.078125 419.691406 C 477.921875 431.171875 474.273438 440.625 465.441406 447.789062 C 463.359375 449.476562 461.339844 451.257812 459.386719 453.097656 C 458.878906 453.578125 458.734375 454.449219 458.421875 455.140625 C 458.648438 455.335938 458.871094 455.53125 459.097656 455.726562 C 460 455.128906 460.96875 454.609375 461.792969 453.917969 C 467.117188 449.460938 473.210938 446.679688 480.035156 445.496094 C 481.257812 445.289062 482.515625 445.230469 484.273438 445.050781 C 481.429688 454.988281 476.105469 462.21875 467.1875 466.664062 C 464.214844 468.144531 461.277344 469.695312 458.390625 471.328125 C 457.550781 471.820312 456.4375 472.453125 457.183594 474.121094 Z M 567.53125 298.195312 C 567.414062 299.839844 567.351562 301.324219 567.203125 302.792969 C 566.492188 309.367188 564.867188 315.707031 562.324219 321.808594 C 559.148438 329.515625 554.675781 336.453125 550.136719 343.410156 C 544.769531 351.636719 539.140625 359.613281 532.3125 366.695312 C 528.199219 370.964844 523.949219 375.082031 518.742188 378.0625 C 515.855469 379.71875 512.929688 381.335938 510.160156 383.183594 C 494.53125 393.597656 479.703125 404.988281 467.203125 419.183594 C 467.589844 418.070312 468.058594 416.992188 468.601562 415.945312 C 472.160156 409.132812 474.167969 401.9375 473.757812 394.214844 C 473.664062 392.441406 474.53125 391.460938 475.582031 390.355469 C 487.078125 378.304688 500.171875 368.132812 513.222656 357.894531 C 518.132812 354.042969 523.335938 350.539062 528.0625 346.476562 C 538.050781 337.898438 547.066406 328.324219 554.773438 317.632812 C 559.21875 311.460938 563.152344 304.914062 567.53125 298.195312 Z M 568.980469 356.890625 L 569.578125 357.292969 C 569.34375 358.386719 569.195312 359.515625 568.863281 360.582031 C 567.328125 365.59375 564.558594 369.929688 561.351562 374.003906 C 555.324219 381.660156 548.023438 388.042969 540.652344 394.304688 C 533.085938 400.71875 524.863281 406.101562 515.449219 409.640625 C 505.773438 413.257812 496.429688 417.648438 487.710938 423.234375 C 486.058594 424.292969 484.433594 425.386719 482.445312 426.695312 C 482.792969 423.890625 483.175781 421.671875 483.324219 419.4375 C 483.625 414.957031 483.003906 414.023438 478.890625 412.425781 C 479.492188 411.882812 479.992188 411.324219 480.589844 410.914062 C 487.121094 406.386719 493.5625 401.703125 500.25 397.414062 C 506.035156 393.707031 512.167969 390.539062 518.035156 386.972656 C 528.320312 380.71875 538.453125 374.210938 548.789062 368.046875 C 555.386719 364.101562 562.238281 360.59375 568.980469 356.890625 Z M 474.859375 442.476562 C 476.917969 438.625 478.765625 435.03125 480.757812 431.523438 C 481.253906 430.652344 482.117188 429.886719 482.980469 429.34375 C 490.394531 424.679688 498.390625 421.257812 506.664062 418.476562 C 512.371094 416.558594 518.226562 415.054688 523.84375 412.914062 C 535.285156 408.542969 546.6875 404.039062 557.550781 398.308594 C 559.304688 397.382812 561.183594 396.683594 563.648438 395.613281 C 562.867188 397.378906 562.453125 398.464844 561.921875 399.515625 C 558.371094 406.625 553.722656 412.921875 547.53125 417.933594 C 543.273438 421.378906 538.917969 424.746094 534.328125 427.722656 C 528.644531 431.40625 522.609375 434.3125 515.867188 435.898438 C 508.988281 437.519531 502.296875 439.980469 495.5625 442.195312 C 493.558594 442.855469 491.691406 443.933594 489.769531 444.824219 C 487.574219 440.417969 486.347656 439.792969 481.539062 440.78125 C 479.351562 441.21875 477.195312 441.875 474.859375 442.476562 Z M 482.570312 459.449219 C 484.570312 456.117188 486.527344 453.269531 488.019531 450.195312 C 488.851562 448.480469 489.960938 447.535156 491.605469 446.832031 C 497.296875 444.414062 503.257812 442.933594 509.304688 441.957031 C 522.613281 439.835938 535.636719 436.492188 548.683594 433.226562 C 549.332031 433.066406 550.019531 433.050781 551.332031 432.882812 C 550.269531 434.460938 549.582031 435.519531 548.859375 436.550781 C 543.792969 443.765625 537.054688 449.039062 529.324219 453.066406 C 522.59375 456.574219 515.355469 458.183594 507.78125 457.492188 C 499.367188 456.726562 491.03125 456.382812 482.570312 459.449219 Z M 533.679688 464.035156 L 533.867188 464.847656 C 525.21875 473.183594 515.007812 477.941406 502.761719 477.960938 C 502.113281 477.945312 501.480469 477.839844 500.859375 477.640625 C 494.785156 475.820312 488.707031 474.128906 482.148438 475.167969 C 482.570312 473.105469 483.121094 471.355469 483.253906 469.574219 C 483.441406 467.054688 482.238281 465.785156 479.746094 465.460938 C 478.808594 465.335938 477.863281 465.300781 476.324219 465.179688 C 477.386719 464.617188 477.90625 464.28125 478.46875 464.046875 C 485.507812 461.070312 492.808594 460.546875 500.320312 461.59375 C 510.457031 463.007812 520.636719 463.90625 530.882812 463.851562 C 531.816406 463.84375 532.75 463.96875 533.679688 464.035156 Z M 472.503906 486.144531 L 472.277344 485.429688 C 474.503906 483.425781 476.679688 481.355469 478.988281 479.449219 C 479.898438 478.707031 480.925781 478.214844 482.074219 477.96875 C 486.007812 477.175781 489.71875 478.363281 493.460938 479.421875 C 500.589844 481.457031 507.746094 483.375 514.882812 485.359375 C 516.484375 485.796875 518.078125 486.316406 519.863281 486.855469 C 517.34375 489.402344 514.492188 490.761719 510.753906 491.367188 C 507.234375 491.949219 503.699219 492.105469 500.140625 491.835938 C 496.585938 491.566406 493.113281 490.878906 489.722656 489.773438 C 484.105469 487.953125 478.601562 485.761719 472.503906 486.144531 Z M 476.277344 489.070312 C 477.960938 489.589844 479.347656 489.867188 480.601562 490.425781 C 487.878906 493.644531 495.132812 496.910156 502.367188 500.214844 C 502.886719 500.453125 503.265625 500.949219 503.792969 501.378906 C 501.707031 503.984375 499.0625 504.652344 496.191406 504.734375 C 490.953125 504.882812 485.949219 503.828125 481.058594 501.964844 C 478.554688 501.015625 475.933594 500.390625 473.367188 499.625 C 472.703125 499.429688 472.035156 499.257812 471.230469 499.039062 C 476.878906 493.226562 476.878906 493.226562 476.273438 489.066406 Z M 463.132812 502.714844 C 466.15625 501.964844 468.84375 501.960938 471.453125 502.652344 C 478.246094 504.449219 484.15625 508.117188 490.308594 511.546875 C 487.804688 513.75 485.542969 514.578125 481.890625 514.734375 C 474.574219 515.058594 467.722656 512.90625 460.597656 510.976562 C 462.414062 508.441406 465.902344 506.636719 463.128906 502.710938 Z M 455.148438 518.429688 L 462.660156 514.355469 C 468.710938 516.332031 472.445312 518.28125 474.039062 520.433594 C 467.570312 522.460938 461.75 519.667969 455.144531 518.425781 Z M 455.148438 518.429688 " fill-opacity="1" fill-rule="nonzero"/></g></g></g></svg>