<svg xmlns="http://www.w3.org/2000/svg" xmlns:xlink="http://www.w3.org/1999/xlink" width="1080" zoomAndPan="magnify" viewBox="0 0 810 809.999993" height="1080" preserveAspectRatio="xMidYMid meet" version="1.0"><defs><clipPath id="360fd29932"><path d="M 317.363281 454.484375 L 479.324219 454.484375 L 479.324219 554.835938 L 317.363281 554.835938 Z M 317.363281 454.484375 " clip-rule="nonzero"/></clipPath><clipPath id="1448faffc7"><path d="M 467.046875 269.777344 L 564.136719 269.777344 L 564.136719 413.679688 L 467.046875 413.679688 Z M 467.046875 269.777344 " clip-rule="nonzero"/></clipPath><clipPath id="161b704121"><path d="M 415 255.054688 L 487 255.054688 L 487 364 L 415 364 Z M 415 255.054688 " clip-rule="nonzero"/></clipPath></defs><path fill="#ff8c00" d="M 153.597656 162.707031 L 154.09375 162.757812 L 154.089844 162.757812 C 174.992188 164.96875 195.277344 167.085938 215.503906 167.085938 C 235.917969 167.085938 255.996094 164.917969 275.972656 158.574219 C 316.398438 145.734375 357.589844 115.578125 400.628906 83.925781 C 404.585938 81.011719 410.0625 81.347656 413.636719 84.71875 C 448.414062 117.492188 481.203125 148.167969 521.621094 161.601562 C 543.210938 168.777344 567.496094 171.167969 593.613281 171.167969 C 616.136719 171.167969 639.574219 169.402344 663.472656 167.589844 C 666.21875 167.382812 668.929688 168.296875 670.992188 170.125 C 673.050781 171.953125 674.285156 174.535156 674.40625 177.285156 C 679.691406 296.542969 685.378906 419.433594 642.75 512.222656 C 599.972656 605.34375 509.179688 666.9375 421.695312 726.601562 C 418.304688 728.914062 413.859375 728.964844 410.417969 726.730469 C 314.617188 664.496094 215.253906 600.300781 169.863281 506.332031 C 124.527344 412.480469 133.738281 290.300781 142.378906 172.082031 C 142.578125 169.335938 143.886719 166.785156 146 165.015625 C 148.117188 163.25 150.855469 162.414062 153.597656 162.707031 M 151.457031 182.941406 L 162.675781 173.566406 C 153.90625 293.535156 145.710938 409.546875 188.1875 497.480469 C 230.609375 585.308594 324.277344 646.503906 421.503906 709.664062 L 410.226562 709.792969 C 498.90625 649.3125 584.28125 590.757812 624.261719 503.726562 C 664.394531 416.359375 659.433594 299.09375 654.074219 178.1875 L 665.007812 187.882812 C 641.265625 189.679688 617.039062 191.519531 593.613281 191.519531 C 566.441406 191.519531 539.714844 189.058594 515.203125 180.914062 C 469.753906 165.808594 433.726562 131.617188 399.679688 99.527344 L 412.6875 100.316406 C 370.476562 131.363281 326.414062 163.90625 282.128906 177.96875 L 282.132812 177.96875 C 259.628906 185.113281 237.363281 187.433594 215.503906 187.433594 C 194.027344 187.433594 172.6875 185.1875 151.953125 182.996094 L 151.949219 182.996094 Z M 151.457031 182.941406 " fill-opacity="1" fill-rule="nonzero"/><path fill="#ff8c00" d="M 405.777344 128.191406 L 405.597656 128.25 C 368.566406 155.453125 330.121094 182.964844 291.511719 195.226562 L 291.507812 195.230469 C 270.78125 201.808594 250.257812 203.945312 230.109375 203.945312 C 213.472656 203.945312 196.925781 202.484375 180.707031 200.816406 L 180.675781 200.816406 L 180.648438 200.820312 C 180.488281 200.816406 180.355469 200.9375 180.34375 201.097656 C 172.558594 308.351562 166.523438 411.65625 204.628906 490.539062 C 243.0625 570.109375 327.003906 626.003906 414.832031 683.089844 C 414.882812 683.125 414.9375 683.140625 414.996094 683.140625 C 415.046875 683.140625 415.09375 683.128906 415.140625 683.105469 C 415.152344 683.097656 415.160156 683.09375 415.167969 683.085938 C 495.132812 628.511719 571.484375 575.019531 607.648438 496.296875 C 643.65625 417.917969 640.367188 313.507812 635.621094 205.378906 C 635.613281 205.226562 635.492188 205.101562 635.335938 205.09375 L 635.304688 205.089844 L 635.261719 205.089844 C 616.484375 206.484375 597.515625 207.714844 579.089844 207.714844 C 554.023438 207.714844 529.394531 205.449219 506.8125 197.941406 C 467.496094 184.875 435.816406 156.292969 406.066406 128.324219 L 406.058594 128.328125 C 406.003906 128.242188 405.910156 128.191406 405.808594 128.191406 Z M 405.777344 128.191406 " fill-opacity="1" fill-rule="nonzero"/><g clip-path="url(#360fd29932)"><path fill="#fffffb" d="M 462.988281 500.578125 C 463.238281 499.984375 465.976562 497.992188 465.976562 497.992188 C 465.976562 497.992188 464.742188 497.929688 463.011719 498.027344 C 470.664062 491.910156 479.183594 477.300781 479.183594 477.300781 C 479.183594 477.300781 459.75 488.269531 457.507812 487.519531 C 455.265625 486.773438 442.3125 456.355469 442.3125 456.355469 C 442.3125 456.355469 450.035156 480.289062 451.03125 484.527344 C 452.027344 488.769531 450.78125 492.507812 450.78125 492.507812 C 450.78125 492.507812 441.3125 500.734375 438.324219 498.492188 C 435.335938 496.246094 423.875 496.746094 422.628906 496.746094 C 421.382812 496.746094 411.914062 489.015625 407.929688 483.78125 C 403.945312 478.542969 393.480469 469.320312 393.480469 469.320312 C 393.480469 469.320312 397.214844 474.308594 400.457031 479.042969 C 403.695312 483.78125 416.152344 497.242188 416.152344 497.242188 C 416.152344 497.242188 414.15625 500.984375 416.152344 500.984375 C 418.144531 500.984375 422.378906 502.480469 419.140625 502.480469 C 415.902344 502.480469 408.675781 502.976562 404.191406 503.226562 C 399.707031 503.476562 395.222656 499.984375 392.730469 495.75 C 390.242188 491.507812 379.03125 492.757812 379.03125 492.757812 C 379.03125 492.757812 377.785156 498.492188 375.542969 499.238281 C 373.300781 499.984375 371.554688 495.5 371.554688 495.5 C 371.554688 495.5 372.800781 496.992188 374.546875 497.242188 C 376.289062 497.492188 377.035156 495.996094 376.789062 493.253906 C 376.539062 490.511719 377.785156 471.5625 378.03125 468.820312 C 378.28125 466.078125 375.292969 454.609375 375.292969 454.609375 C 375.292969 454.609375 377.285156 464.582031 375.789062 469.070312 C 374.296875 473.558594 371.804688 493.503906 369.3125 492.757812 C 366.820312 492.007812 358.351562 495.75 358.351562 495.75 C 358.351562 495.75 364.578125 499.984375 365.078125 503.476562 C 365.574219 506.96875 359.097656 514.945312 354.367188 520.179688 C 349.632812 525.417969 330.945312 539.628906 327.457031 544.617188 C 323.96875 549.601562 317.492188 554.835938 317.492188 554.835938 C 317.492188 554.835938 325.464844 550.101562 328.953125 545.859375 C 332.441406 541.625 347.636719 534.890625 352.125 530.652344 C 356.609375 526.414062 363.085938 526.914062 363.582031 522.175781 C 364.082031 517.4375 372.054688 508.460938 374.792969 505.71875 C 377.535156 502.976562 378.28125 506.71875 380.773438 504.972656 C 383.265625 503.226562 388.996094 503.976562 392.730469 509.960938 C 396.46875 515.941406 407.183594 515.941406 412.039062 514.695312 C 415.171875 513.890625 420.421875 512.675781 424.964844 512.246094 C 423.261719 512.441406 413.785156 514.304688 416.898438 514.945312 C 420.109375 515.605469 423.46875 534.390625 423.46875 534.390625 C 423.46875 534.390625 422.378906 527.910156 421.882812 521.925781 C 421.382812 515.949219 425.089844 512.242188 425.097656 512.234375 C 427.546875 512.007812 429.78125 512.019531 431.347656 512.453125 C 432.28125 512.710938 433.507812 514.003906 434.871094 515.902344 C 434.546875 518.292969 434 520.898438 433.089844 523.171875 C 430.601562 529.410156 419.640625 542.621094 419.640625 542.621094 C 419.640625 542.621094 431.347656 531.402344 433.839844 526.664062 C 435.160156 524.152344 436.339844 521.433594 437.15625 519.429688 C 441.917969 527.375 447.203125 539.429688 447.542969 541.125 C 448.039062 543.617188 457.257812 552.09375 457.257812 552.09375 C 457.257812 552.09375 451.03125 543.117188 450.035156 538.382812 C 449.035156 533.644531 442.0625 517.4375 442.558594 512.203125 C 442.972656 507.875 451.21875 505.25 458.429688 501.085938 C 459.496094 501.648438 460.511719 502.742188 461.246094 504.722656 C 463.734375 511.453125 467.222656 519.929688 467.222656 519.929688 C 467.222656 519.929688 462.738281 501.167969 462.988281 500.578125 " fill-opacity="1" fill-rule="nonzero"/></g><path fill="#fffffb" d="M 484.222656 435.835938 C 484.179688 435.820312 484.15625 435.8125 484.15625 435.8125 C 484.179688 435.820312 484.199219 435.828125 484.222656 435.835938 " fill-opacity="1" fill-rule="nonzero"/><path fill="#fffffb" d="M 522.523438 481.691406 C 520.03125 477.367188 509.234375 468.226562 509.234375 468.226562 L 511.539062 460.914062 L 504.726562 461.910156 L 497.609375 470.386719 C 497.609375 470.386719 499.4375 474.75 500.597656 475.226562 C 501.761719 475.707031 505.914062 473.710938 505.914062 473.710938 C 505.914062 473.710938 516.378906 479.03125 521.359375 483.019531 C 526.34375 487.011719 540.296875 495.988281 540.296875 495.988281 C 540.296875 495.988281 525.015625 486.011719 522.523438 481.691406 " fill-opacity="1" fill-rule="nonzero"/><path fill="#fffffb" d="M 500.296875 454.441406 C 502.183594 446.535156 504.25 438.09375 505.34375 435.910156 C 507.085938 432.417969 508.132812 430.921875 508.132812 430.921875 L 503.347656 418.707031 C 503.347656 418.707031 497.90625 426.441406 494.535156 435.5625 C 492.914062 436.566406 489.738281 437.554688 484.226562 435.835938 C 484.949219 436.0625 491.1875 438.148438 492.332031 443.109375 C 491.394531 446.789062 490.273438 450.828125 489.121094 454.734375 C 482.910156 453.65625 469.871094 445.785156 469.871094 445.785156 C 480.351562 452.398438 485.007812 458.699219 486.902344 462.003906 C 485.394531 466.753906 484.019531 470.675781 483.171875 472.5625 C 477.191406 485.773438 466.625 495.746094 468.117188 496.992188 C 469.613281 498.242188 478.6875 494.003906 479.183594 494.003906 C 479.683594 494.003906 487.15625 500.734375 488.898438 503.476562 C 490.644531 506.21875 507.085938 529.65625 508.082031 531.648438 C 509.078125 533.644531 495.128906 504.933594 491.140625 497.972656 C 487.15625 491.011719 487.40625 487.269531 489.398438 484.03125 C 489.996094 483.054688 490.777344 481.785156 491.628906 480.277344 C 492.609375 479.882812 493.878906 479.71875 494.953125 480.527344 C 496.945312 482.023438 513.554688 495.15625 513.554688 495.15625 C 513.554688 495.15625 499.484375 481.191406 495.695312 471.773438 C 496.328125 470.125 496.902344 468.386719 497.371094 466.578125 C 497.5625 465.839844 497.769531 464.996094 498 464.074219 C 499.167969 462.84375 501.226562 461.125 503.753906 460.914062 C 507.742188 460.582031 539.46875 454.730469 550.429688 447.265625 C 550.429688 447.265625 523.6875 454.097656 513.554688 455.59375 C 507.578125 456.476562 502.992188 455.738281 500.296875 454.441406 " fill-opacity="1" fill-rule="nonzero"/><path fill="#fffffb" d="M 457.910156 486.179688 C 459.074219 487.011719 465.21875 483.351562 465.21875 483.351562 C 465.21875 483.351562 467.875 475.207031 467.972656 473.878906 C 468.070312 472.546875 483.15625 461.910156 483.15625 461.910156 L 485.152344 460.914062 L 483.15625 457.921875 C 483.15625 457.921875 462.394531 470.222656 458.90625 478.035156 C 455.417969 485.847656 456.75 485.347656 457.910156 486.179688 " fill-opacity="1" fill-rule="nonzero"/><path fill="#fffffb" d="M 514.21875 454.609375 C 515.050781 454.429688 516.042969 445.785156 520.859375 438.972656 C 525.679688 432.15625 533.816406 419.71875 534.648438 418.707031 C 535.476562 417.695312 547.273438 411.210938 546.605469 411.378906 C 545.941406 411.546875 534.316406 416.699219 534.316406 416.699219 L 539.296875 408.71875 C 539.296875 408.71875 531.132812 417.40625 529.832031 421.1875 C 528.171875 426.007812 525.777344 427.199219 525.777344 427.199219 C 525.777344 427.199219 525.015625 422.046875 525.179688 418.707031 C 525.347656 415.367188 528.003906 410.382812 528.003906 410.382812 C 528.003906 410.382812 524.515625 415.367188 523.683594 419.855469 C 522.855469 424.34375 523.1875 430.496094 522.355469 431.90625 C 521.527344 433.320312 517.042969 435.980469 517.042969 435.980469 C 517.042969 435.980469 510.894531 413.871094 509.566406 407.886719 C 508.238281 401.902344 510.894531 394.425781 510.894531 394.425781 C 510.894531 394.425781 509.851562 386.777344 508.132812 386.113281 C 506.414062 385.449219 500.515625 401.074219 501.800781 405.5625 C 502.03125 406.355469 502.375 407.539062 502.789062 408.964844 C 501.214844 410.667969 497.078125 412.132812 486.199219 408.269531 C 489.417969 409.464844 499.300781 413.359375 505.4375 418.195312 C 506.863281 423.269531 508.132812 428.03125 508.132812 429 C 508.132812 430.925781 512.226562 443.292969 507.40625 455.097656 C 507.40625 455.097656 513.386719 454.789062 514.21875 454.609375 " fill-opacity="1" fill-rule="nonzero"/><path fill="#fffffb" d="M 486.199219 408.269531 C 485.535156 408.019531 485.152344 407.886719 485.152344 407.886719 C 485.507812 408.019531 485.859375 408.144531 486.199219 408.269531 " fill-opacity="1" fill-rule="nonzero"/><path fill="#fffffb" d="M 514.136719 362.214844 C 514.039062 356.960938 521.417969 346.507812 521.417969 346.507812 L 510.777344 359.566406 C 510.777344 359.566406 514.1875 364.90625 514.136719 362.214844 " fill-opacity="1" fill-rule="nonzero"/><g clip-path="url(#1448faffc7)"><path fill="#fffffb" d="M 470.742188 319.980469 C 469.566406 319.609375 468.847656 319.394531 468.847656 319.394531 L 471.78125 327.625 C 471.78125 327.625 483.28125 332.363281 483.792969 336.351562 C 484.300781 340.339844 490.332031 352.058594 490.921875 354.300781 C 491.308594 355.761719 499.847656 365.789062 505.839844 373.085938 C 503.96875 375.804688 497.179688 377.695312 473.117188 363.550781 C 473.117188 363.550781 497.234375 381.703125 511.691406 381.046875 C 512.058594 383.324219 513.082031 391.195312 511.640625 394.941406 C 510.117188 398.886719 513.6875 413.140625 515.679688 413.640625 C 515.679688 413.640625 524.105469 397.933594 525 395.9375 C 525.894531 393.945312 533.519531 391.203125 541.167969 391.699219 C 548.816406 392.199219 564.511719 384.820312 564.511719 384.820312 C 564.511719 384.820312 545.730469 389.953125 541.167969 389.457031 C 536.609375 388.957031 526.144531 387.960938 526.144531 387.960938 C 526.144531 387.960938 523.1875 378.039062 520.722656 373.714844 C 519.34375 371.292969 517.8125 370.824219 517.683594 370.503906 C 517.480469 369.996094 521.136719 371.519531 521.09375 370.769531 C 520.960938 368.582031 523.222656 362.777344 524.558594 359.289062 C 525.894531 355.796875 530.628906 337.597656 530.628906 337.597656 C 530.628906 337.597656 522.472656 356.796875 519.824219 360.785156 C 517.175781 364.773438 514.914062 366.269531 514.425781 365.023438 C 513.9375 363.777344 499.136719 348.070312 496.820312 344.828125 C 494.507812 341.585938 491.828125 334.109375 490.921875 329.867188 C 490.808594 329.339844 490.382812 328.777344 489.71875 328.203125 C 489.542969 328 489.433594 327.824219 489.445312 327.632812 C 489.480469 327.078125 491.28125 329.90625 491.410156 327.710938 C 491.558594 325.179688 491.914062 322.792969 492.5 321.390625 C 494.484375 316.652344 509.007812 303.6875 509.007812 303.6875 C 509.007812 303.6875 498.738281 310.171875 496.820312 312.167969 C 495.351562 313.691406 489.835938 318.65625 487.402344 320.429688 C 484.109375 322.820312 480.570312 322.257812 480.964844 322.121094 C 484.984375 320.722656 486.066406 320.175781 485.6875 319.671875 C 485.015625 318.777344 483.488281 317.007812 481.621094 313.664062 C 478.703125 308.425781 474.324219 294.214844 472.332031 288.480469 C 470.335938 282.746094 467.101562 269.78125 467.101562 269.78125 C 467.101562 269.78125 475.820312 312.914062 475.820312 316.40625 C 475.820312 319.894531 470.742188 319.980469 470.742188 319.980469 " fill-opacity="1" fill-rule="nonzero"/></g><g clip-path="url(#161b704121)"><path fill="#fffffb" d="M 427.050781 303.6875 C 429.203125 304.800781 428.449219 300.070312 431.128906 301.46875 C 433.675781 302.800781 434.339844 303.074219 437.328125 304.898438 C 440.320312 306.726562 450.78125 309.007812 453.023438 317.453125 C 454.390625 322.59375 458.730469 331.792969 462.898438 338.824219 L 457.757812 345.519531 L 464.664062 341.6875 C 465.480469 342.953125 466.273438 344.09375 467.011719 345.0625 L 460.496094 363.550781 L 470.1875 348.21875 C 474.777344 350.796875 486.644531 351.371094 486.644531 351.371094 C 486.644531 351.371094 481.738281 340.726562 482.660156 338.21875 C 483.585938 335.707031 476.691406 336.476562 474.699219 334.378906 C 472.707031 332.285156 466.226562 317.222656 464.484375 313.570312 C 464.160156 312.894531 463.5625 312.019531 462.753906 311.023438 L 468.96875 303.207031 L 459.839844 307.800781 C 456.375 304.292969 451.605469 300.316406 447.289062 297.839844 C 449.589844 291.8125 454.269531 280.023438 454.269531 280.023438 C 454.269531 280.023438 447.679688 290.726562 443.441406 295.957031 C 438.867188 294.039062 432.777344 292.324219 426.914062 291.71875 C 426.523438 288.773438 425.625 282.386719 424.871094 279.796875 C 423.875 276.375 426.867188 270.4375 428.859375 265.417969 C 430.851562 260.398438 431.097656 255.148438 431.097656 255.148438 L 428.359375 263.136719 C 428.359375 263.136719 421.132812 274.089844 421.382812 280.253906 C 421.632812 286.414062 415.652344 292.347656 415.652344 292.347656 C 415.652344 292.347656 423.121094 301.65625 427.050781 303.6875 " fill-opacity="1" fill-rule="nonzero"/></g><path fill="#fffffb" d="M 503.355469 337.210938 C 501.710938 336.71875 500.121094 336.398438 498.9375 336.203125 L 497.957031 324.960938 L 497.09375 335.945312 C 497 335.9375 496.945312 335.929688 496.945312 335.929688 L 494.046875 336.929688 L 499.859375 346.355469 C 499.859375 346.355469 503.097656 344.65625 505.839844 345.519531 C 508.582031 346.386719 506.835938 352.9375 506.835938 352.9375 C 506.835938 352.9375 508.332031 354.878906 510.019531 356.625 C 511.703125 358.371094 512.085938 344.183594 510.765625 341.871094 C 509.78125 340.148438 507.800781 338.902344 505.636719 338.015625 L 511.339844 328.203125 L 503.355469 337.210938 " fill-opacity="1" fill-rule="nonzero"/><path fill="#fffffb" d="M 380.636719 278.585938 L 380.636719 281.351562 L 393.730469 272.601562 Z M 380.636719 278.585938 " fill-opacity="1" fill-rule="nonzero"/><path fill="#fffffb" d="M 387.75 288.0625 C 385.546875 284.292969 388.945312 290.019531 387.8125 293.777344 C 385.757812 294.152344 383.867188 294.660156 382.269531 295.292969 C 375.292969 298.035156 375.292969 298.035156 375.292969 298.035156 C 375.292969 298.035156 383.515625 303.894531 389.492188 303.210938 C 395.472656 302.519531 410.671875 307.203125 416.898438 314.210938 C 422.386719 320.390625 430.585938 324.996094 435.863281 327.367188 C 438.03125 340.5625 433.089844 359.117188 433.089844 359.117188 C 438.597656 347.148438 441.933594 334.3125 443.207031 328.878906 C 448.378906 328.742188 454.269531 327.207031 454.269531 327.207031 C 454.269531 327.207031 450.28125 320.472656 450.035156 317.480469 C 449.785156 314.492188 448.789062 313.242188 446.046875 311.996094 C 446.046875 311.996094 438.074219 316.980469 433.339844 311.996094 C 428.609375 307.011719 417.148438 298.53125 409.425781 295.292969 C 404.613281 293.273438 397.96875 292.707031 391.957031 293.226562 C 391.4375 293.050781 390.152344 292.171875 387.75 288.0625 " fill-opacity="1" fill-rule="nonzero"/><path fill="#fffffb" d="M 302.546875 303.226562 C 302.542969 303.21875 302.542969 303.210938 302.542969 303.210938 C 302.542969 303.210938 302.542969 303.21875 302.546875 303.226562 " fill-opacity="1" fill-rule="nonzero"/><path fill="#fffffb" d="M 314.753906 327.769531 C 311.167969 333.441406 309.230469 338.085938 311.511719 338.21875 C 317.992188 338.59375 329.203125 331.589844 329.203125 331.589844 C 329.203125 331.589844 330.945312 326.957031 333.1875 322.96875 C 335.429688 318.976562 347.640625 311.746094 354.367188 310.964844 C 361.089844 310.183594 373.546875 312.742188 379.03125 314.484375 C 380.753906 315.03125 382.574219 315.183594 384.417969 315.15625 C 385.0625 319.039062 386.253906 326.351562 386.253906 327.417969 C 386.253906 328.535156 387.132812 319.335938 387.542969 314.964844 C 390.519531 314.6875 393.4375 314.234375 395.972656 314.484375 C 396.191406 314.507812 396.417969 314.519531 396.648438 314.523438 C 399.71875 316.570312 402.863281 319.390625 403.695312 322.714844 C 405.4375 329.699219 412.414062 336.429688 414.78125 339.421875 C 417.148438 342.414062 420.886719 344.40625 420.886719 344.40625 C 420.886719 344.40625 411.667969 334.058594 410.421875 328.886719 C 409.394531 324.632812 407.902344 316.070312 404.824219 312.492188 C 406.660156 311.695312 407.929688 310.964844 407.929688 310.964844 C 403.445312 305.945312 394.476562 306.261719 391.238281 306.261719 C 388 306.261719 376.789062 303.769531 373.300781 301.25 C 372.207031 300.460938 370.433594 299.875 368.320312 299.457031 C 369.128906 296.882812 370.980469 292.054688 374.296875 288.558594 C 379.03125 283.574219 380.273438 278.835938 380.523438 272.105469 C 380.773438 265.371094 380.523438 258.890625 380.523438 258.890625 C 380.523438 258.890625 378.78125 272.988281 375.292969 280.027344 C 371.804688 287.0625 357.871094 297.445312 363.636719 297.445312 C 365.304688 297.445312 366.332031 298.3125 366.953125 299.21875 C 362.5 298.527344 356.992188 298.472656 353.121094 298.78125 C 346.890625 299.28125 338.917969 302.023438 330.449219 308.847656 C 330.421875 308.867188 330.398438 308.890625 330.375 308.910156 C 326.742188 304.78125 320.769531 298.058594 319.570312 297.097656 C 317.824219 295.695312 310.128906 279.949219 310.128906 279.949219 L 315.023438 296.746094 L 326.398438 312.683594 C 323.761719 315.476562 320.910156 318.976562 318.359375 322.480469 C 313.867188 318.828125 305.949219 312.089844 304.539062 308.847656 C 302.691406 304.605469 302.554688 303.386719 302.546875 303.226562 C 302.5625 303.585938 302.859375 309.113281 304.785156 314.085938 C 306.183594 317.6875 311.621094 324.195312 314.753906 327.769531 " fill-opacity="1" fill-rule="nonzero"/><path fill="#fffffb" d="M 280.871094 352.9375 C 276.636719 356.484375 270.65625 365.851562 263.929688 374.078125 C 257.203125 382.304688 252.71875 392.277344 252.71875 392.277344 C 252.71875 392.277344 260.441406 380.558594 261.1875 379.5625 C 261.9375 378.566406 269.90625 370.585938 276.136719 363.550781 C 282.363281 356.511719 289.339844 353.882812 294.324219 352.9375 C 299.304688 351.992188 321.726562 349.144531 334.433594 342.328125 C 341 338.804688 349.496094 331.769531 356.175781 325.792969 C 355.816406 326.441406 355.59375 326.847656 355.59375 326.847656 C 355.59375 326.847656 360.148438 322.894531 364.164062 325.191406 C 363.195312 324.457031 361.65625 323.117188 360.886719 321.484375 C 364.617188 318.003906 367.070312 315.542969 367.070312 315.542969 C 367.070312 315.542969 372.054688 314.742188 365.328125 312.746094 C 358.601562 310.746094 348.136719 315.488281 345.394531 319.394531 C 342.65625 323.304688 334.683594 328.949219 332.191406 331.589844 C 329.699219 334.230469 306.28125 342.910156 302.542969 342.328125 C 298.808594 341.742188 289.589844 336.429688 286.601562 333.1875 C 283.609375 329.949219 261.4375 315.542969 261.4375 315.542969 C 261.4375 315.542969 264.925781 318.480469 268.664062 321.429688 C 272.398438 324.378906 283.363281 334.1875 287.097656 340.667969 C 290.835938 347.152344 285.105469 349.394531 280.871094 352.9375 " fill-opacity="1" fill-rule="nonzero"/><path fill="#fffffb" d="M 328.953125 346.355469 C 328.953125 346.355469 339.832031 353.285156 346.144531 359.664062 L 333.4375 344.410156 L 328.953125 346.355469 " fill-opacity="1" fill-rule="nonzero"/><path fill="#fffffb" d="M 346.144531 359.664062 L 349.382812 363.550781 C 348.601562 362.324219 347.472656 361.007812 346.144531 359.664062 " fill-opacity="1" fill-rule="nonzero"/><path fill="#fffffb" d="M 296.316406 440.792969 L 296.566406 430.675781 C 296.566406 430.675781 285.105469 410.730469 287.84375 403.25 C 288.863281 400.472656 292.933594 393.886719 297.90625 386.128906 C 301.132812 395.035156 302.542969 409.542969 302.542969 404.996094 C 302.542969 400.851562 301.296875 387.183594 300.777344 381.664062 C 302.367188 379.203125 304.003906 376.675781 305.625 374.160156 C 307.246094 381.882812 314.003906 395.09375 314.003906 395.09375 C 310.757812 386.074219 309.738281 374.578125 309.417969 368.25 C 314.371094 360.480469 318.699219 353.40625 320.484375 349.394531 C 320.484375 349.394531 308.273438 351.746094 304.785156 352.9375 C 302.246094 353.804688 300.101562 359.472656 295.179688 368.9375 L 291.085938 356.773438 L 293.207031 372.640625 C 291.800781 375.226562 290.195312 378.039062 288.34375 381.066406 C 281.589844 392.105469 278.324219 396.390625 277.027344 399.898438 C 276.761719 399.796875 276.515625 399.527344 276.320312 399.011719 C 275.386719 396.515625 274.144531 398.261719 273.144531 401.003906 C 272.148438 403.746094 245.492188 417.210938 246.238281 417.210938 C 246.988281 417.210938 273.144531 408.984375 276.386719 405.492188 C 276.882812 411.976562 296.316406 440.792969 296.316406 440.792969 " fill-opacity="1" fill-rule="nonzero"/><path fill="#fffffb" d="M 282.117188 421.949219 L 280.371094 417.210938 L 268.910156 435.410156 Z M 282.117188 421.949219 " fill-opacity="1" fill-rule="nonzero"/><path fill="#fffffb" d="M 324.71875 489.015625 C 326.710938 487.769531 327.210938 486.773438 324.21875 484.777344 C 321.230469 482.78125 325.214844 482.035156 327.457031 484.777344 C 329.699219 487.519531 336.179688 494.75 340.664062 500.484375 C 345.148438 506.21875 357.605469 512.703125 357.605469 512.703125 C 357.605469 512.703125 364.332031 508.214844 363.085938 504.722656 C 361.839844 501.234375 348.386719 490.761719 347.636719 490.761719 C 346.890625 490.761719 344.398438 493.503906 342.65625 490.511719 C 340.910156 487.519531 341.160156 486.773438 342.15625 487.769531 C 343.152344 488.769531 344.398438 490.261719 345.394531 489.015625 C 346.394531 487.769531 346.394531 470.816406 346.394531 470.816406 C 346.394531 470.816406 342.40625 487.269531 339.914062 485.773438 C 338.925781 485.179688 337.109375 484.230469 335.21875 482.878906 C 334.273438 479.316406 336.925781 475.550781 336.925781 475.550781 C 334.875 478.335938 332.65625 479.054688 331.171875 479.171875 C 329.945312 477.648438 329.007812 475.867188 328.703125 473.808594 C 327.707031 467.074219 338.421875 436.160156 338.421875 436.160156 C 338.421875 436.160156 323.96875 470.816406 319.984375 470.566406 C 316 470.316406 308.773438 466.578125 308.523438 461.839844 C 308.273438 457.101562 309.269531 448.875 308.027344 447.875 C 306.78125 446.878906 305.285156 444.136719 306.03125 442.644531 C 306.78125 441.144531 307.277344 443.886719 308.273438 445.882812 C 309.269531 447.875 317.492188 456.601562 319.734375 458.847656 C 321.976562 461.09375 324.46875 462.589844 324.46875 462.589844 L 325.964844 458.597656 C 325.964844 458.597656 320.390625 453.019531 315.726562 447.71875 L 328.453125 445.386719 L 328.453125 444.386719 C 328.453125 444.386719 317.3125 444.230469 311.84375 443.042969 C 310.566406 441.367188 309.683594 439.96875 309.519531 439.152344 C 308.964844 436.382812 307.457031 427.722656 305.59375 421.09375 C 307.277344 418.691406 309.710938 415.972656 312.648438 414.847656 C 311.40625 415.273438 307.136719 416.546875 303.574219 415.289062 C 303.5625 415.265625 303.550781 415.242188 303.542969 415.214844 C 300.800781 409.480469 292.578125 399.507812 292.578125 399.507812 C 292.578125 399.507812 288.59375 402.5 289.839844 410.230469 C 291.085938 417.957031 297.8125 423.445312 297.8125 429.925781 C 297.8125 436.40625 299.058594 455.109375 298.808594 458.597656 C 298.558594 462.089844 294.820312 463.335938 287.097656 459.347656 C 279.375 455.355469 266.667969 452.117188 266.667969 452.117188 C 266.667969 452.117188 279.875 457.351562 285.105469 461.339844 C 290.335938 465.328125 300.300781 468.820312 300.300781 468.820312 C 300.300781 468.820312 301.050781 471.316406 307.527344 473.808594 C 314.003906 476.300781 315.5 479.292969 314.753906 480.039062 C 314.003906 480.789062 296.066406 479.542969 283.859375 479.789062 C 271.652344 480.039062 252.71875 484.03125 252.71875 484.03125 C 252.71875 484.03125 277.628906 480.539062 293.328125 482.78125 C 309.023438 485.027344 322.726562 490.261719 324.71875 489.015625 " fill-opacity="1" fill-rule="nonzero"/><path fill="#fffffb" d="M 312.648438 414.847656 C 312.878906 414.769531 313.007812 414.71875 313.007812 414.71875 C 312.886719 414.757812 312.769531 414.800781 312.648438 414.847656 " fill-opacity="1" fill-rule="nonzero"/><path fill="#fffffb" d="M 331.195312 465.828125 L 360.84375 464.582031 L 331.941406 461.589844 Z M 331.195312 465.828125 " fill-opacity="1" fill-rule="nonzero"/><path fill="#fffffb" d="M 327.957031 507.464844 C 330.945312 509.210938 347.140625 509.210938 347.140625 509.210938 L 342.40625 505.71875 L 341.410156 502.230469 C 341.410156 502.230469 329.453125 503.476562 325.214844 499.738281 C 320.980469 495.996094 313.507812 489.515625 313.507812 489.515625 C 313.507812 489.515625 324.96875 505.71875 327.957031 507.464844 " fill-opacity="1" fill-rule="nonzero"/><path fill="#fffffb" d="M 392.484375 513.949219 C 391.488281 510.957031 390.488281 514.199219 386.253906 515.445312 C 382.019531 516.691406 372.800781 512.453125 372.800781 512.453125 C 372.800781 512.453125 365.824219 517.1875 367.070312 519.183594 C 368.316406 521.179688 378.03125 523.171875 382.269531 523.921875 C 386.503906 524.667969 393.480469 520.929688 393.480469 520.929688 L 380.523438 532.148438 C 380.523438 532.148438 393.730469 524.421875 396.46875 521.179688 C 399.210938 517.9375 402.945312 517.691406 402.945312 517.691406 C 402.945312 517.691406 393.480469 516.941406 392.484375 513.949219 " fill-opacity="1" fill-rule="nonzero"/><path fill="#fffffb" d="M 364.164062 325.191406 C 364.679688 325.578125 365.035156 325.796875 365.035156 325.796875 C 364.75 325.558594 364.457031 325.359375 364.164062 325.191406 " fill-opacity="1" fill-rule="nonzero"/><path fill="#fffffb" d="M 277.605469 394.042969 L 282.5 384.941406 C 282.5 384.941406 283.230469 379.828125 284.949219 377.59375 C 288.445312 373.042969 290.195312 368.492188 290.195312 368.492188 C 290.195312 368.492188 281.800781 372.34375 276.207031 378.992188 C 274.582031 380.921875 277.605469 394.042969 277.605469 394.042969 " fill-opacity="1" fill-rule="nonzero"/></svg>