<svg xmlns="http://www.w3.org/2000/svg" xmlns:xlink="http://www.w3.org/1999/xlink" width="1080" zoomAndPan="magnify" viewBox="0 0 810 809.999993" height="1080" preserveAspectRatio="xMidYMid meet" version="1.0"><defs><clipPath id="7dba278a4f"><path d="M 220.253906 239 L 580.472656 239 L 580.472656 531.375 L 220.253906 531.375 Z M 220.253906 239 " clip-rule="nonzero"/></clipPath></defs><path fill="#7f5cff" d="M 217.910156 81.140625 L 618.777344 85.527344 C 621.335938 85.554688 623.710938 86.863281 625.097656 89.011719 C 626.488281 91.160156 626.710938 93.859375 625.683594 96.207031 L 594.445312 167.761719 L 587.617188 157.082031 L 662.105469 158.691406 C 666.1875 158.78125 669.476562 162.070312 669.566406 166.152344 C 672.65625 307.1875 675.984375 451.046875 633.734375 545.425781 C 591.070312 640.742188 502.503906 684.910156 417.078125 727.800781 C 414.75 728.96875 411.988281 728.871094 409.75 727.535156 C 318.558594 673.195312 224.722656 617.511719 179.464844 539.878906 C 134.101562 462.066406 138.0625 363.308594 141.148438 298 C 144.257812 232.242188 146.808594 197.273438 149.355469 162.355469 C 149.65625 158.226562 153.195312 155.089844 157.328125 155.289062 L 232.925781 158.941406 L 225.0625 167.980469 L 210.332031 90.1875 C 209.90625 87.941406 210.511719 85.625 211.980469 83.871094 C 213.449219 82.117188 215.625 81.117188 217.910156 81.140625 M 217.742188 96.398438 L 225.320312 87.351562 L 240.050781 165.144531 C 240.484375 167.4375 239.84375 169.804688 238.3125 171.566406 C 236.777344 173.332031 234.519531 174.292969 232.1875 174.179688 L 156.59375 170.527344 L 164.570312 163.464844 C 162.027344 198.328125 159.488281 233.140625 156.386719 298.71875 C 153.265625 364.746094 149.898438 458.875 192.644531 532.195312 C 235.496094 605.699219 325.207031 659.398438 417.558594 714.433594 L 410.234375 714.167969 C 496.546875 670.828125 579.714844 628.769531 619.8125 539.191406 C 660.324219 448.6875 657.4375 308.996094 654.3125 166.484375 L 661.773438 173.945312 L 587.289062 172.335938 C 584.746094 172.28125 582.394531 170.960938 581.027344 168.816406 C 579.65625 166.675781 579.445312 163.988281 580.460938 161.65625 L 611.703125 90.101562 L 618.609375 100.78125 Z M 217.742188 96.398438 " fill-opacity="1" fill-rule="nonzero"/><path fill="#7f5cff" d="M 242.839844 119.660156 L 242.839844 119.664062 C 242.761719 119.660156 242.6875 119.699219 242.644531 119.761719 C 242.597656 119.824219 242.582031 119.90625 242.609375 119.980469 L 261.019531 176.902344 C 261.722656 179.085938 261.292969 181.476562 259.871094 183.277344 C 258.5625 184.933594 256.574219 185.890625 254.480469 185.890625 C 254.300781 185.890625 254.121094 185.882812 253.941406 185.871094 L 187.050781 180.609375 L 187.007812 180.609375 C 186.878906 180.609375 186.773438 180.707031 186.765625 180.835938 C 178.019531 311.140625 166.757812 437.457031 213.394531 516.554688 C 260.03125 595.65625 327.621094 647.199219 413.707031 689.507812 C 413.742188 689.527344 413.777344 689.535156 413.816406 689.535156 C 413.855469 689.535156 413.894531 689.527344 413.929688 689.507812 L 413.925781 689.507812 C 493.296875 649.636719 569.433594 610.308594 606.390625 527.746094 C 643.542969 444.746094 641.59375 317.464844 638.75 186.996094 L 638.722656 187 C 638.757812 186.953125 638.777344 186.902344 638.773438 186.84375 C 638.769531 186.710938 638.664062 186.605469 638.535156 186.605469 L 566.949219 185.878906 C 564.660156 185.855469 562.527344 184.691406 561.273438 182.773438 C 560.015625 180.855469 559.796875 178.441406 560.691406 176.328125 L 584.296875 120.546875 L 584.316406 120.453125 L 584.316406 120.449219 C 584.316406 120.316406 584.207031 120.207031 584.070312 120.207031 L 242.839844 119.660156 L 242.839844 119.664062 Z M 242.839844 119.660156 " fill-opacity="1" fill-rule="nonzero"/><g clip-path="url(#7dba278a4f)"><path fill="#ffffff" d="M 580.820312 513.257812 C 577.988281 522.648438 569.210938 529.820312 558.542969 531.046875 C 556.84375 531.238281 555.144531 531.378906 553.492188 531.425781 C 550.378906 531.519531 547.3125 531.332031 544.339844 530.953125 C 544.101562 530.90625 543.867188 530.90625 543.628906 530.90625 C 543.253906 530.859375 542.875 530.765625 542.496094 530.671875 C 541.269531 530.480469 540.089844 530.292969 538.910156 530.011719 C 538.769531 529.960938 538.675781 529.914062 538.535156 529.914062 C 537.730469 529.726562 536.929688 529.492188 536.125 529.253906 C 535.84375 529.160156 535.511719 529.066406 535.230469 528.972656 C 532.539062 528.121094 529.992188 527.132812 527.488281 526 C 524.09375 524.488281 520.882812 522.742188 517.957031 520.761719 C 516.636719 519.816406 515.359375 518.871094 514.132812 517.882812 C 514.085938 517.832031 514.039062 517.785156 513.992188 517.738281 C 510.074219 514.578125 506.535156 511.085938 503.515625 507.308594 C 502.617188 506.128906 501.769531 504.949219 500.917969 503.722656 C 500.917969 503.722656 500.964844 503.722656 500.964844 503.769531 C 502.664062 504.621094 504.410156 505.46875 506.207031 506.222656 C 506.300781 506.269531 506.394531 506.316406 506.488281 506.367188 C 508.234375 507.121094 510.027344 507.828125 511.867188 508.488281 C 512.105469 508.582031 512.339844 508.679688 512.578125 508.726562 C 514.324219 509.339844 516.117188 509.953125 517.957031 510.472656 C 518.335938 510.566406 518.664062 510.660156 519.042969 510.753906 C 520.835938 511.273438 522.675781 511.746094 524.515625 512.21875 C 524.941406 512.3125 525.367188 512.40625 525.789062 512.5 C 527.679688 512.925781 529.566406 513.351562 531.5 513.679688 C 531.832031 513.726562 532.210938 513.773438 532.585938 513.871094 C 534.285156 514.152344 535.984375 514.4375 537.730469 514.671875 C 543.160156 515.425781 548.820312 515.992188 554.769531 516.277344 C 554.816406 516.277344 554.863281 516.277344 554.957031 516.277344 C 555.191406 516.277344 555.429688 516.277344 555.664062 516.324219 C 557.175781 516.417969 558.636719 516.464844 560.101562 516.464844 C 560.527344 516.464844 560.902344 516.464844 561.328125 516.464844 C 563.074219 516.417969 564.773438 516.324219 566.472656 516.085938 C 566.660156 516.039062 566.804688 516.039062 566.992188 515.992188 Z M 506.773438 489.800781 C 508.140625 490.554688 509.554688 491.214844 510.972656 491.875 C 511.445312 492.066406 511.867188 492.253906 512.339844 492.441406 C 513.566406 492.960938 514.746094 493.480469 516.023438 493.90625 C 516.164062 493.953125 516.351562 494 516.492188 494.09375 C 515.359375 492.441406 514.277344 490.695312 513.332031 488.902344 C 511.207031 484.609375 509.746094 480.171875 508.707031 475.074219 L 502.050781 443.878906 C 501.0625 442.179688 500.023438 440.578125 498.9375 439.113281 C 489.074219 426.703125 473.6875 424.957031 460.144531 426.558594 C 463.257812 428.824219 466.089844 431.609375 468.921875 435.195312 C 469.015625 435.339844 469.109375 435.433594 469.203125 435.574219 C 470.433594 437.320312 471.566406 438.972656 472.554688 441 L 473.121094 441.992188 C 473.261719 442.277344 473.40625 442.511719 473.5 442.792969 L 482.65625 464.976562 L 483.222656 466.34375 C 483.882812 467.714844 484.636719 469.035156 485.390625 470.308594 C 485.488281 470.496094 485.628906 470.6875 485.722656 470.875 C 490.867188 478.945312 497.992188 484.988281 506.207031 489.421875 C 506.347656 489.613281 506.582031 489.707031 506.773438 489.800781 Z M 311.527344 240.234375 C 275.378906 237.5 240.3125 254.628906 220.253906 284.976562 L 227.476562 299.230469 C 249.277344 273.695312 281.277344 258.832031 314.878906 258.6875 Z M 270.609375 368.367188 C 272.261719 369.3125 274.007812 370.210938 275.847656 371.058594 C 275.898438 371.105469 275.992188 371.105469 276.039062 371.152344 C 277.832031 371.957031 279.671875 372.710938 281.652344 373.417969 C 281.796875 373.464844 281.984375 373.558594 282.125 373.609375 C 284.015625 374.269531 285.949219 374.882812 287.976562 375.449219 C 288.261719 375.542969 288.59375 375.636719 288.875 375.683594 C 290.808594 376.203125 292.792969 376.628906 294.820312 377.054688 C 295.292969 377.148438 295.765625 377.242188 296.238281 377.335938 C 298.171875 377.714844 300.203125 377.996094 302.277344 378.28125 C 302.890625 378.375 303.550781 378.46875 304.164062 378.515625 C 306.148438 378.75 308.175781 378.894531 310.253906 379.035156 C 311.054688 379.082031 311.8125 379.175781 312.613281 379.175781 C 314.644531 379.269531 316.765625 379.316406 318.890625 379.316406 C 319.789062 379.316406 320.683594 379.367188 321.628906 379.367188 C 323.800781 379.367188 326.015625 379.222656 328.28125 379.128906 C 329.226562 379.082031 330.171875 379.082031 331.160156 378.988281 C 333.617188 378.847656 336.117188 378.5625 338.710938 378.328125 C 339.089844 378.28125 339.46875 378.28125 339.84375 378.234375 C 336.917969 374.222656 335.265625 369.832031 335.078125 365.253906 C 335.078125 365.066406 335.078125 364.875 335.078125 364.734375 L 328.941406 335.425781 L 323.75 307.015625 C 294.445312 306.121094 270.609375 319.003906 251.402344 346.234375 L 254.09375 351.519531 C 254.515625 352.464844 255.035156 353.410156 255.601562 354.351562 C 255.886719 354.777344 256.167969 355.203125 256.453125 355.625 C 257.019531 356.523438 257.679688 357.371094 258.386719 358.222656 C 258.578125 358.410156 258.71875 358.601562 258.90625 358.835938 C 259.804688 359.875 260.792969 360.914062 261.832031 361.902344 C 261.925781 361.949219 261.972656 362.046875 262.070312 362.09375 C 263.25 363.175781 264.523438 364.214844 265.9375 365.253906 C 265.9375 365.253906 265.984375 365.253906 265.984375 365.300781 C 267.355469 366.386719 268.910156 367.425781 270.609375 368.367188 C 270.5625 368.367188 270.5625 368.367188 270.609375 368.367188 Z M 320.96875 291.867188 C 322.570312 291.867188 324.175781 291.867188 325.78125 291.960938 L 322.808594 273.980469 C 321.109375 273.839844 319.363281 273.792969 317.664062 273.792969 C 285.335938 273.035156 254.421875 288.042969 235.027344 314 C 234.082031 315.226562 233.1875 316.457031 232.289062 317.730469 L 240.878906 334.957031 C 241.820312 333.679688 242.765625 332.5 243.757812 331.273438 C 264.476562 305.082031 290.386719 291.867188 320.96875 291.867188 Z M 465.289062 411.03125 C 466.136719 410.984375 467.035156 410.984375 467.882812 410.984375 C 468.070312 410.984375 468.261719 410.984375 468.402344 410.984375 C 476.472656 410.9375 484.777344 412.117188 492.472656 415.46875 C 492.472656 415.46875 492.519531 415.46875 492.519531 415.515625 C 492.28125 415.089844 492 414.761719 491.765625 414.335938 C 490.914062 412.921875 490.015625 411.550781 489.121094 410.183594 C 488.742188 409.617188 488.367188 409.050781 487.941406 408.53125 C 486.667969 406.785156 485.34375 405.085938 483.882812 403.480469 C 483.835938 403.433594 483.835938 403.386719 483.789062 403.386719 C 483.457031 403.007812 483.078125 402.679688 482.75 402.300781 C 477.886719 397.109375 472.367188 392.578125 466.421875 388.851562 C 461.183594 385.738281 455.425781 383.1875 449.382812 381.300781 C 447.96875 380.875 446.550781 380.402344 445.136719 380.027344 C 443.34375 379.601562 441.5 379.222656 439.613281 378.894531 C 434.046875 377.949219 428.050781 377.667969 421.820312 377.949219 C 421.773438 377.949219 421.726562 377.949219 421.632812 377.949219 C 420.59375 378.042969 419.507812 378.136719 418.375 378.234375 C 418.328125 378.234375 418.234375 378.234375 418.1875 378.234375 C 417.242188 378.328125 416.300781 378.421875 415.355469 378.5625 C 415.308594 378.5625 415.308594 378.5625 415.261719 378.5625 C 413.5625 378.800781 411.769531 379.082031 410.023438 379.507812 L 382.839844 385.5 L 366.226562 389.183594 C 362.402344 390.03125 358.675781 390.691406 354.945312 391.351562 C 354.570312 391.398438 354.191406 391.496094 353.816406 391.542969 C 350.085938 392.15625 346.40625 392.675781 342.769531 393.097656 C 342.628906 393.097656 342.535156 393.144531 342.394531 393.144531 C 312.851562 396.496094 286.988281 393.289062 268.109375 384.320312 L 271.648438 392.910156 C 279.058594 409.191406 291.753906 423.398438 307.375 432.648438 C 315.113281 437.179688 323.375 440.53125 331.867188 442.605469 C 339.46875 444.351562 347.300781 445.058594 355.183594 444.824219 C 356.078125 444.777344 356.929688 444.824219 357.824219 444.777344 C 358.816406 444.683594 359.855469 444.539062 360.894531 444.445312 C 368.066406 443.644531 375.570312 441.898438 382.648438 439.207031 L 397.46875 432.882812 L 421.019531 422.878906 C 421.492188 422.644531 421.964844 422.40625 422.386719 422.21875 C 422.671875 422.125 422.90625 421.980469 423.191406 421.839844 C 423.238281 421.792969 423.332031 421.792969 423.378906 421.746094 C 423.898438 421.558594 424.371094 421.367188 424.84375 421.179688 L 425.644531 420.847656 C 425.644531 420.847656 425.644531 420.847656 425.691406 420.847656 C 425.878906 420.753906 426.164062 420.613281 426.445312 420.519531 C 426.730469 420.378906 427.105469 420.234375 427.53125 420.046875 C 436.59375 415.988281 448.910156 412.261719 461.796875 411.269531 C 462.976562 411.175781 464.109375 411.128906 465.289062 411.03125 Z M 465.289062 411.03125 " fill-opacity="1" fill-rule="nonzero"/></g></svg>