<svg xmlns="http://www.w3.org/2000/svg" xmlns:xlink="http://www.w3.org/1999/xlink" width="1080" zoomAndPan="magnify" viewBox="0 0 810 809.999993" height="1080" preserveAspectRatio="xMidYMid meet" version="1.0"><defs><clipPath id="1ef7432d48"><path d="M 107 81 L 702.820312 81 L 702.820312 728.71875 L 107 728.71875 Z M 107 81 " clip-rule="nonzero"/></clipPath><clipPath id="1594909438"><path d="M 162 317.945312 L 648 317.945312 L 648 493 L 162 493 Z M 162 317.945312 " clip-rule="nonzero"/></clipPath></defs><g clip-path="url(#1ef7432d48)"><path fill="#00268f" d="M 115.105469 169.910156 C 141.558594 163.496094 164.082031 157.753906 177.820312 145.179688 C 191.359375 132.789062 197.429688 112.699219 204.351562 88.570312 C 205.644531 84.050781 209.796875 80.953125 214.496094 80.996094 L 602.96875 84.414062 C 607.742188 84.453125 611.882812 87.726562 613.027344 92.363281 L 613.03125 92.371094 L 613.097656 92.644531 L 613.097656 92.636719 C 618.085938 112.859375 622.578125 130.066406 635.367188 143.996094 C 648.726562 158.542969 671.640625 170.246094 697.179688 183.109375 C 700.710938 184.886719 702.9375 188.503906 702.933594 192.457031 L 702.726562 541.304688 C 702.726562 544.195312 701.527344 546.957031 699.417969 548.933594 C 606.960938 635.476562 509.855469 727.234375 410.003906 728.859375 C 409.101562 728.875 408.171875 728.882812 407.273438 728.882812 C 308.351562 728.882812 209.875 641.171875 116.078125 558.40625 C 113.871094 556.457031 112.585938 553.664062 112.542969 550.714844 L 107.113281 180.226562 C 107.042969 175.34375 110.359375 171.0625 115.105469 169.910156 M 120.035156 190.238281 L 128.027344 179.921875 L 133.457031 550.410156 L 129.917969 542.722656 C 226.351562 627.816406 318.105469 707.964844 407.273438 707.964844 C 408.0625 707.964844 408.875 707.957031 409.664062 707.945312 C 499.5625 706.480469 590.019531 622.679688 685.121094 533.664062 L 681.8125 541.292969 L 682.015625 192.445312 L 687.769531 201.792969 C 663.433594 189.535156 636.46875 176.121094 619.960938 158.140625 C 603.023438 139.695312 597.609375 117.179688 592.789062 97.648438 L 592.785156 97.640625 L 592.71875 97.367188 L 602.785156 105.328125 L 214.3125 101.910156 L 224.457031 94.335938 C 217.992188 116.875 210.679688 143.457031 191.941406 160.609375 C 173.402344 177.574219 144.753906 184.242188 120.035156 190.238281 Z M 120.035156 190.238281 " fill-opacity="1" fill-rule="nonzero"/></g><path fill="#00268f" d="M 234.5625 122.132812 C 234.453125 122.132812 234.359375 122.203125 234.328125 122.308594 C 228.703125 141.605469 221.605469 162.707031 206.125 176.878906 C 190.746094 190.953125 167.863281 197.414062 146.710938 202.621094 C 146.59375 202.652344 146.511719 202.765625 146.527344 202.886719 L 146.550781 202.886719 L 151.433594 536.328125 C 151.433594 536.398438 151.464844 536.460938 151.511719 536.503906 C 151.546875 536.535156 151.582031 536.554688 151.625 536.5625 L 151.601562 536.566406 C 240.300781 614.804688 324.871094 687.8125 407.125 687.8125 C 407.824219 687.8125 408.65625 687.808594 409.359375 687.796875 C 409.367188 687.796875 409.375 687.796875 409.382812 687.796875 L 409.359375 687.796875 C 492.324219 686.445312 575.753906 610.03125 663.261719 528.152344 L 663.234375 528.152344 C 663.347656 528.128906 663.429688 528.03125 663.429688 527.914062 L 663.617188 212.824219 L 663.640625 212.824219 C 663.660156 212.714844 663.609375 212.609375 663.511719 212.558594 C 642.289062 201.839844 619.839844 190.015625 605.675781 174.589844 C 591.953125 159.644531 586.359375 141.820312 582.171875 125.425781 L 582.191406 125.425781 C 582.191406 125.292969 582.082031 125.191406 581.953125 125.1875 L 234.585938 122.132812 Z M 234.5625 122.132812 " fill-opacity="1" fill-rule="nonzero"/><g clip-path="url(#1594909438)"><path fill="#ffffff" d="M 372.609375 392.109375 C 363.433594 414.902344 367.074219 421.253906 342.371094 421.390625 C 344.222656 411.386719 346.074219 401.386719 347.921875 391.390625 C 334.691406 409.160156 333.515625 420.964844 311.078125 418.847656 C 315.726562 408.441406 320.375 398.03125 325.023438 387.621094 C 304.90625 405.109375 299.933594 416.902344 273.425781 413.308594 C 283.3125 402.945312 293.195312 392.578125 303.078125 382.214844 C 281.191406 395.195312 265.425781 412.871094 240.257812 406.234375 C 254.082031 395.441406 267.90625 384.644531 281.730469 373.851562 C 258.457031 385.089844 236.558594 405.714844 212.601562 393.671875 C 228.945312 383.820312 245.285156 373.96875 261.621094 364.117188 C 235.820312 372.199219 205.441406 393.007812 184.621094 373.988281 C 204.707031 366.535156 224.792969 359.089844 244.875 351.636719 C 216.230469 354.984375 177.757812 373.304688 165.820312 344.105469 C 188.273438 341.035156 210.722656 337.960938 233.171875 334.886719 C 213.503906 333.316406 161.152344 340.570312 162.417969 318.101562 C 222.492188 318.054688 282.566406 318.003906 342.640625 317.957031 C 343.117188 348.011719 362.621094 372.550781 393.710938 375.980469 C 396.59375 367.507812 398.414062 352.339844 396.433594 344.621094 C 392.886719 343.710938 390.640625 342.257812 387.386719 344.035156 C 389.238281 337.421875 390.429688 339.117188 397.21875 339.117188 C 397.28125 338.460938 397.972656 337.167969 398.628906 337.152344 C 423.320312 336.496094 417.847656 358.410156 416.613281 375.945312 C 447.511719 372.378906 466.875 347.90625 467.351562 317.957031 C 527.425781 318.003906 587.496094 318.058594 647.570312 318.101562 C 648.835938 340.574219 596.492188 333.3125 576.816406 334.886719 C 599.265625 337.960938 621.714844 341.035156 644.167969 344.105469 C 632.238281 373.308594 593.761719 354.984375 565.113281 351.640625 C 585.195312 359.089844 605.28125 366.535156 625.367188 373.988281 C 604.40625 393.140625 574.109375 372.179688 548.367188 364.117188 C 564.707031 373.96875 581.042969 383.820312 597.382812 393.671875 C 573.429688 405.714844 551.535156 385.089844 528.253906 373.851562 C 542.085938 384.644531 555.910156 395.4375 569.734375 406.234375 C 544.566406 412.878906 528.800781 395.199219 506.914062 382.214844 C 516.792969 392.578125 526.679688 402.945312 536.566406 413.308594 C 510.054688 416.898438 505.089844 405.113281 484.964844 387.625 C 489.617188 398.035156 494.261719 408.441406 498.914062 418.847656 C 476.480469 420.964844 475.300781 409.164062 462.066406 391.390625 C 463.917969 401.386719 465.769531 411.386719 467.621094 421.390625 C 442.917969 421.253906 446.5625 414.902344 437.378906 392.113281 C 433.6875 402.125 430 412.132812 426.308594 422.144531 C 443.988281 427.433594 461.667969 432.726562 479.347656 438.015625 C 460.335938 473.113281 454.277344 453.527344 422.871094 433.636719 C 434.066406 445.96875 445.265625 458.304688 456.460938 470.636719 C 421.851562 491.996094 427.847656 471.378906 413.128906 437.042969 C 416.054688 454.246094 418.976562 471.449219 421.894531 488.652344 C 411.054688 494.050781 399.625 494.171875 387.613281 489.015625 C 390.535156 471.648438 393.457031 454.277344 396.378906 436.90625 C 381.664062 471.238281 387.664062 491.855469 353.046875 470.5 C 364.246094 458.164062 375.441406 445.828125 386.644531 433.496094 C 355.230469 453.386719 349.171875 472.972656 330.167969 437.878906 C 348.007812 432.539062 365.851562 427.195312 383.699219 421.855469 C 380.003906 411.941406 376.308594 402.027344 372.609375 392.109375 Z M 398.3125 339.339844 C 399.421875 339.820312 401.121094 339.136719 402.238281 339.203125 C 400.1875 340.273438 399.003906 341.894531 398.3125 339.339844 " fill-opacity="1" fill-rule="evenodd"/></g></svg>