<svg xmlns="http://www.w3.org/2000/svg" xmlns:xlink="http://www.w3.org/1999/xlink" width="1080" zoomAndPan="magnify" viewBox="0 0 810 809.999993" height="1080" preserveAspectRatio="xMidYMid meet" version="1.0"><defs><clipPath id="30e3ec8d06"><path d="M 253.320312 231 L 556.292969 231 L 556.292969 562.902344 L 253.320312 562.902344 Z M 253.320312 231 " clip-rule="nonzero"/></clipPath></defs><path fill="#2ce4e4" d="M 189.738281 90.589844 C 266.042969 122.082031 340.511719 152.691406 412.6875 152.691406 C 414.257812 152.691406 415.882812 152.675781 417.449219 152.648438 C 491.027344 151.25 562.914062 117.222656 636.699219 82.15625 C 639.046875 81.039062 641.800781 81.199219 644.003906 82.578125 C 646.207031 83.953125 647.558594 86.359375 647.582031 88.960938 L 651.925781 530.222656 C 651.949219 532.539062 650.914062 534.742188 649.113281 536.207031 L 414.570312 726.808594 C 411.84375 729.027344 407.953125 729.089844 405.15625 726.957031 L 173.113281 550.179688 C 171.179688 548.707031 170.066406 546.398438 170.113281 543.96875 L 179.21875 97.476562 C 179.269531 94.960938 180.558594 92.636719 182.660156 91.257812 C 184.765625 89.882812 187.414062 89.632812 189.738281 90.589844 M 183.925781 104.667969 L 194.445312 97.785156 L 185.339844 544.277344 L 182.34375 538.066406 L 414.382812 714.84375 L 404.96875 714.992188 L 639.507812 524.386719 L 636.699219 530.371094 L 632.355469 89.109375 L 643.238281 95.910156 C 570.171875 130.636719 495.207031 166.402344 417.738281 167.875 C 416.070312 167.90625 414.355469 167.921875 412.6875 167.921875 C 336.910156 167.921875 259.5 135.855469 183.925781 104.667969 Z M 183.925781 104.667969 " fill-opacity="1" fill-rule="nonzero"/><path fill="#2ce4e4" d="M 616.753906 122.398438 L 616.640625 122.421875 C 551.925781 153.117188 485.648438 183.191406 417.285156 184.496094 C 417.277344 184.496094 417.269531 184.496094 417.261719 184.496094 L 417.230469 184.5 C 415.683594 184.527344 414.121094 184.539062 412.570312 184.539062 C 345.425781 184.539062 276.878906 157.417969 209.703125 129.746094 L 209.625 129.726562 L 209.601562 129.726562 C 209.59375 129.726562 209.585938 129.726562 209.582031 129.726562 C 209.515625 129.726562 209.453125 129.75 209.40625 129.792969 C 209.355469 129.839844 209.324219 129.90625 209.324219 129.980469 L 201.148438 530.890625 C 201.144531 530.972656 201.183594 531.050781 201.25 531.101562 L 409.5625 689.800781 C 409.605469 689.835938 409.664062 689.851562 409.71875 689.851562 C 409.777344 689.851562 409.835938 689.832031 409.882812 689.796875 L 620.835938 518.359375 L 620.933594 518.15625 L 617.042969 122.65625 C 617.039062 122.511719 616.925781 122.398438 616.78125 122.398438 Z M 616.753906 122.398438 " fill-opacity="1" fill-rule="nonzero"/><g clip-path="url(#30e3ec8d06)"><path fill="#ffffff" d="M 371.277344 370.617188 C 371.839844 365.25 375.816406 362.53125 378.203125 360.277344 C 380.585938 358.023438 376.976562 353.28125 376.976562 353.28125 C 376.976562 353.28125 374.691406 354.34375 369.089844 353.449219 C 363.492188 352.550781 361.667969 349.304688 358.6875 346.617188 C 355.671875 343.933594 351.03125 345.492188 347.785156 353.945312 C 344.539062 362.398438 355.273438 374.5625 357.957031 377.976562 C 360.640625 381.390625 365.941406 390.441406 367.898438 388.816406 C 369.820312 387.128906 370.714844 375.988281 371.277344 370.617188 M 397.253906 249.160156 C 404.710938 262.320312 404.808594 283.570312 404.808594 284.230469 C 404.808594 283.570312 404.90625 262.289062 412.363281 249.160156 C 419.917969 235.800781 425.882812 235.46875 425.882812 235.46875 C 425.882812 235.46875 419.222656 230.929688 413.355469 231.160156 C 407.492188 231.390625 404.808594 233.050781 404.808594 233.050781 C 404.808594 233.050781 402.125 231.425781 396.261719 231.160156 C 390.394531 230.929688 383.734375 235.46875 383.734375 235.46875 C 383.734375 235.46875 389.667969 235.800781 397.253906 249.160156 Z M 400.203125 286.253906 C 400.203125 286.253906 396.957031 265.570312 390.097656 254.496094 C 383.273438 243.425781 371.210938 239.015625 371.210938 239.015625 C 371.210938 239.015625 375.683594 243.128906 376.777344 245.8125 C 377.871094 248.496094 378.003906 249.390625 378.003906 249.390625 C 378.003906 249.390625 363.921875 242.230469 355.140625 241.667969 C 346.359375 241.105469 342.683594 242.496094 338.542969 241.734375 C 334.398438 241.003906 332.445312 239.382812 332.445312 239.382812 C 332.445312 239.382812 334.070312 241.835938 336.6875 243.691406 C 339.304688 245.578125 344.671875 246.871094 350.867188 247.039062 C 357.0625 247.203125 373.265625 249.492188 382.210938 261.691406 C 391.15625 273.890625 395.464844 295.003906 395.464844 295.003906 C 395.464844 295.003906 396.691406 286.851562 396.359375 283.4375 C 396.027344 280.023438 395.628906 278.464844 395.628906 278.464844 Z M 383.96875 286.519531 C 383.96875 286.519531 380.390625 260.464844 365.414062 255.257812 C 350.4375 250.054688 334.167969 254.761719 324.0625 252.972656 C 313.957031 251.183594 309.417969 247.769531 309.417969 247.769531 C 309.417969 247.769531 314.949219 258.839844 326.183594 259.171875 C 337.414062 259.503906 348.976562 255.589844 362 261.957031 C 375.019531 268.289062 383.96875 286.519531 383.96875 286.519531 Z M 372.402344 286.519531 C 372.402344 286.519531 365.246094 270.242188 346.691406 267.128906 C 328.136719 264.042969 315.449219 271.039062 303.71875 266.164062 C 291.988281 261.292969 291.195312 256.550781 291.195312 256.550781 C 291.195312 256.550781 293.8125 276.574219 308.125 278.066406 C 322.4375 279.523438 335.160156 271.371094 348.648438 274.652344 C 362.164062 277.902344 372.402344 286.519531 372.402344 286.519531 Z M 285.890625 313.304688 C 292.089844 311.746094 294.441406 308.097656 298.847656 301.335938 C 303.253906 294.574219 310.078125 286.851562 310.078125 286.851562 C 310.078125 286.851562 308.953125 286.453125 304.878906 287.910156 C 300.800781 289.371094 294.773438 294.277344 290.300781 301.601562 C 285.824219 308.929688 274.328125 313.734375 274.328125 313.734375 C 274.328125 313.734375 279.695312 314.863281 285.890625 313.304688 Z M 301.433594 311.613281 C 290.53125 322.851562 285.957031 325.800781 279.628906 329.050781 C 273.269531 332.296875 266.609375 331.003906 266.609375 331.003906 C 266.609375 331.003906 280.128906 340.617188 291.691406 335.25 C 303.253906 329.878906 310.410156 316.851562 316.9375 307.070312 C 323.464844 297.292969 337.28125 290.960938 344.769531 289.304688 C 352.257812 287.679688 359.25 287.84375 359.25 287.84375 C 359.25 287.84375 345.566406 279.855469 328.46875 283.933594 C 311.371094 287.976562 312.332031 300.375 301.433594 311.613281 Z M 322.339844 312.707031 C 310.941406 329.648438 302.160156 343.503906 285.394531 347.582031 C 268.628906 351.625 253.320312 346.253906 253.320312 346.253906 C 253.320312 346.253906 269.589844 356.996094 286.222656 356.664062 C 302.824219 356.332031 312.761719 347.050781 318.460938 338.761719 C 324.160156 330.441406 330.027344 318.242188 337.679688 309.757812 C 345.332031 301.269531 353.617188 297.226562 353.617188 297.226562 C 353.617188 297.226562 333.738281 295.769531 322.339844 312.707031 Z M 287.746094 364.023438 L 280.589844 363.890625 C 280.589844 363.890625 276.183594 367.304688 272.273438 377.746094 C 268.363281 388.1875 268.863281 398.101562 268.53125 405.921875 C 268.199219 413.746094 262.335938 420.410156 262.335938 420.410156 C 262.335938 420.410156 267.207031 419.117188 270.949219 413.414062 C 274.691406 407.714844 272.738281 393.855469 277.144531 383.777344 C 281.550781 373.667969 291.625 363.757812 291.625 363.757812 C 291.625 363.757812 289.703125 364.054688 287.746094 364.023438 Z M 320.152344 358.1875 C 312.332031 360.808594 288.742188 367.96875 281.253906 393.691406 C 273.765625 419.449219 285.460938 442.882812 289.371094 453.328125 C 293.28125 463.734375 291.824219 476.628906 291.824219 476.628906 C 291.824219 476.628906 293.613281 474.507812 294.738281 463.4375 C 295.867188 452.363281 290.996094 438.34375 289.371094 422.230469 C 287.746094 406.121094 295.566406 380.695312 312.167969 369.957031 C 328.765625 359.214844 331.714844 348.773438 331.714844 348.773438 C 331.714844 348.773438 327.972656 355.570312 320.152344 358.1875 Z M 316.078125 378.441406 C 304.84375 387.722656 297.523438 407.449219 297.523438 421.105469 C 297.523438 434.796875 301.101562 443.746094 301.597656 450.277344 C 302.09375 456.808594 300.304688 461.84375 300.304688 461.84375 C 300.304688 461.84375 305.011719 455.8125 305.839844 445.070312 C 306.667969 434.332031 306.335938 425.515625 315.613281 414.609375 C 324.890625 403.703125 330.921875 391.46875 332.378906 382.851562 C 333.835938 374.230469 333.042969 363.625 333.042969 363.625 C 333.042969 363.625 327.308594 369.160156 316.078125 378.441406 Z M 341.65625 417.027344 C 333.835938 425.8125 317.402344 433.96875 313.328125 446.828125 C 309.25 459.691406 314.617188 473.050781 313.328125 484.121094 C 312.035156 495.195312 304.546875 501.394531 304.546875 501.394531 C 304.546875 501.394531 318.394531 492.609375 321.3125 479.582031 C 324.226562 466.554688 322.605469 454.488281 331.714844 445.371094 C 340.828125 436.253906 349.144531 428.363281 351.097656 417.757812 C 353.054688 407.183594 349.308594 397.636719 349.308594 397.636719 C 349.308594 397.636719 349.441406 408.242188 341.65625 417.027344 Z M 345.964844 446.035156 C 335.0625 459.226562 330.324219 467.214844 329.527344 480.410156 C 328.699219 493.601562 335.226562 512.496094 345.332031 520.652344 C 355.441406 528.808594 370.25 551.613281 370.25 551.613281 C 370.25 551.613281 366.007812 534.675781 360.972656 524.398438 C 355.9375 514.121094 342.582031 494.265625 349.410156 470.628906 C 356.234375 447.027344 359.8125 441.457031 358.851562 432.34375 L 357.890625 423.226562 C 357.859375 423.226562 356.863281 432.839844 345.964844 446.035156 Z M 361.734375 458.5625 C 358.320312 469.304688 355.539062 489.523438 362.5625 506.464844 C 369.554688 523.402344 384.234375 540.675781 387.976562 548.664062 C 391.71875 556.652344 390.59375 562.6875 390.59375 562.6875 C 390.59375 562.6875 395.628906 549.824219 388.308594 537.292969 C 380.984375 524.761719 373.664062 506.828125 373.664062 489.394531 C 373.664062 471.957031 373 463.503906 371.210938 455.84375 C 369.421875 448.1875 365.179688 445.4375 365.179688 445.4375 C 365.179688 445.4375 365.179688 447.824219 361.734375 458.5625 Z M 381.117188 464.429688 C 381.117188 464.429688 379.992188 492.609375 383.734375 502.882812 C 387.480469 513.160156 395.960938 528.144531 396.921875 535.136719 C 397.882812 542.132812 397.75 545.25 397.75 545.25 C 397.75 545.25 403.449219 528.144531 400.832031 512.167969 C 398.214844 496.1875 389.335938 489.359375 387.3125 480.476562 C 385.292969 471.589844 381.117188 464.429688 381.117188 464.429688 Z M 391.953125 470.53125 C 393.675781 477.195312 395.367188 484.554688 397.652344 487.96875 C 399.9375 491.382812 402.058594 497.015625 402.058594 497.015625 C 402.058594 497.015625 402.15625 483.492188 399.140625 474.441406 C 396.128906 465.394531 385.789062 455.714844 385.789062 455.714844 C 385.789062 455.714844 390.261719 463.867188 391.953125 470.53125 Z M 392.8125 448.652344 C 398.679688 449.945312 401.128906 451.902344 402.753906 454.023438 C 404.378906 456.144531 404.839844 457.371094 404.839844 457.371094 C 404.839844 457.371094 405.304688 456.144531 406.929688 454.023438 C 408.550781 451.902344 411.003906 449.945312 416.867188 448.652344 C 422.734375 447.359375 424.523438 443.613281 424.523438 443.613281 C 424.523438 443.613281 424.753906 444.90625 423.960938 446.464844 C 423.164062 448.023438 422.832031 448.421875 422.832031 448.421875 C 422.832031 448.421875 427.304688 447.457031 430.71875 443.613281 C 434.132812 439.800781 434.527344 433.105469 432.277344 430.355469 C 429.988281 427.601562 416.902344 429.523438 412.097656 428.332031 C 407.292969 427.105469 404.90625 424.1875 404.90625 424.1875 C 404.90625 424.1875 402.488281 427.105469 397.71875 428.332031 C 392.914062 429.558594 379.792969 427.601562 377.539062 430.355469 C 375.253906 433.136719 375.652344 439.800781 379.097656 443.613281 C 382.507812 447.425781 386.984375 448.421875 386.984375 448.421875 C 386.984375 448.421875 386.652344 448.023438 385.855469 446.464844 C 385.0625 444.90625 385.292969 443.613281 385.292969 443.613281 C 385.292969 443.613281 386.949219 447.328125 392.8125 448.652344 Z M 423.859375 455.714844 C 423.859375 455.714844 413.523438 465.394531 410.507812 474.441406 C 407.492188 483.492188 407.589844 497.015625 407.589844 497.015625 C 407.589844 497.015625 409.710938 491.382812 412 487.96875 C 414.285156 484.554688 415.972656 477.226562 417.699219 470.53125 C 419.421875 463.835938 423.859375 455.714844 423.859375 455.714844 Z M 422.304688 480.476562 C 420.28125 489.359375 411.402344 496.1875 408.785156 512.167969 C 406.167969 528.144531 411.867188 545.25 411.867188 545.25 C 411.867188 545.25 411.699219 542.167969 412.695312 535.136719 C 413.65625 528.144531 422.136719 513.160156 425.882812 502.882812 C 429.625 492.609375 428.5 464.429688 428.5 464.429688 C 428.5 464.429688 424.324219 471.589844 422.304688 480.476562 Z M 438.40625 455.8125 C 436.617188 463.46875 435.953125 471.957031 435.953125 489.359375 C 435.953125 506.796875 428.632812 524.695312 421.308594 537.261719 C 413.988281 549.789062 419.023438 562.652344 419.023438 562.652344 C 419.023438 562.652344 417.894531 556.621094 421.640625 548.628906 C 425.382812 540.640625 440.027344 523.371094 447.054688 506.429688 C 454.042969 489.492188 451.292969 469.304688 447.882812 458.53125 C 444.46875 447.789062 444.46875 445.335938 444.46875 445.335938 C 444.46875 445.335938 440.226562 448.15625 438.40625 455.8125 Z M 450.796875 432.34375 C 449.835938 441.457031 453.414062 446.996094 460.242188 470.628906 C 467.066406 494.265625 453.714844 514.121094 448.675781 524.398438 C 443.640625 534.675781 439.398438 551.613281 439.398438 551.613281 C 439.398438 551.613281 454.210938 528.808594 464.316406 520.652344 C 474.421875 512.496094 480.914062 493.601562 480.121094 480.410156 C 479.292969 467.214844 474.585938 459.226562 463.6875 446.035156 C 452.785156 432.839844 451.792969 423.226562 451.792969 423.226562 Z M 458.550781 417.757812 C 460.503906 428.332031 468.820312 436.253906 477.933594 445.371094 C 487.046875 454.488281 485.421875 466.554688 488.335938 479.582031 C 491.285156 492.609375 505.101562 501.394531 505.101562 501.394531 C 505.101562 501.394531 497.617188 495.195312 496.324219 484.121094 C 495.03125 473.050781 500.398438 459.691406 496.324219 446.828125 C 492.246094 433.96875 475.8125 425.8125 467.992188 417.027344 C 460.175781 408.242188 460.339844 397.636719 460.339844 397.636719 C 460.339844 397.636719 456.597656 407.183594 458.550781 417.757812 Z M 477.269531 382.816406 C 478.730469 391.4375 484.757812 403.667969 494.035156 414.574219 C 503.3125 425.480469 502.984375 434.296875 503.8125 445.039062 C 504.640625 455.78125 509.34375 461.8125 509.34375 461.8125 C 509.34375 461.8125 507.554688 456.773438 508.050781 450.242188 C 508.550781 443.714844 512.128906 434.761719 512.128906 421.070312 C 512.128906 407.382812 504.804688 387.691406 493.574219 378.410156 C 482.339844 369.128906 476.640625 363.589844 476.640625 363.589844 C 476.640625 363.589844 475.78125 374.199219 477.269531 382.816406 Z M 451.691406 377.945312 C 454.375 374.53125 465.109375 362.398438 461.863281 353.910156 C 458.617188 345.425781 453.976562 343.902344 450.964844 346.585938 C 447.949219 349.269531 446.160156 352.519531 440.558594 353.414062 C 434.925781 354.308594 432.671875 353.25 432.671875 353.25 C 432.671875 353.25 429.09375 357.988281 431.449219 360.242188 C 433.832031 362.496094 437.808594 365.214844 438.371094 370.585938 C 438.9375 375.957031 439.832031 387.128906 441.785156 388.75 C 443.707031 390.410156 449.007812 381.359375 451.691406 377.945312 Z M 497.449219 369.921875 C 514.050781 380.664062 521.867188 406.089844 520.246094 422.199219 C 518.621094 438.308594 513.71875 452.332031 514.878906 463.402344 C 516.003906 474.476562 517.792969 476.597656 517.792969 476.597656 C 517.792969 476.597656 516.335938 463.734375 520.246094 453.292969 C 524.15625 442.882812 535.882812 419.414062 528.394531 393.691406 C 520.90625 367.96875 497.316406 360.808594 489.496094 358.1875 C 481.679688 355.570312 477.933594 348.742188 477.933594 348.742188 C 477.933594 348.742188 480.851562 359.183594 497.449219 369.921875 Z M 517.960938 363.722656 C 517.960938 363.722656 528.066406 373.667969 532.4375 383.746094 C 536.84375 393.855469 534.890625 407.679688 538.632812 413.382812 C 542.378906 419.082031 547.25 420.375 547.25 420.375 C 547.25 420.375 541.382812 413.714844 541.054688 405.890625 C 540.722656 398.066406 541.21875 388.121094 537.308594 377.714844 C 533.398438 367.269531 528.992188 363.855469 528.992188 363.855469 L 521.835938 363.988281 C 519.914062 364.054688 517.960938 363.722656 517.960938 363.722656 Z M 491.152344 338.761719 C 496.851562 347.082031 506.792969 356.363281 523.394531 356.664062 C 539.992188 356.996094 556.292969 346.253906 556.292969 346.253906 C 556.292969 346.253906 540.988281 351.625 524.222656 347.546875 C 507.457031 343.46875 498.675781 329.648438 487.277344 312.707031 C 475.878906 295.769531 456.03125 297.226562 456.03125 297.226562 C 456.03125 297.226562 464.347656 301.304688 472.003906 309.757812 C 479.65625 318.210938 485.488281 330.441406 491.152344 338.761719 Z M 492.710938 307.039062 C 499.238281 316.816406 506.394531 329.84375 517.960938 335.214844 C 529.523438 340.585938 543.042969 330.972656 543.042969 330.972656 C 543.042969 330.972656 536.382812 332.265625 530.019531 329.015625 C 523.65625 325.769531 519.117188 322.816406 508.21875 311.582031 C 497.316406 300.34375 498.277344 287.976562 481.179688 283.902344 C 464.085938 279.824219 450.398438 287.8125 450.398438 287.8125 C 450.398438 287.8125 457.390625 287.644531 464.878906 289.269531 C 472.367188 290.929688 486.21875 297.257812 492.710938 307.039062 Z M 510.800781 301.335938 C 515.210938 308.097656 517.5625 311.746094 523.757812 313.304688 C 529.953125 314.863281 535.320312 313.703125 535.320312 313.703125 C 535.320312 313.703125 523.824219 308.894531 519.351562 301.570312 C 514.878906 294.242188 508.847656 289.371094 504.773438 287.878906 C 500.695312 286.421875 499.570312 286.816406 499.570312 286.816406 C 499.570312 286.816406 506.394531 294.574219 510.800781 301.335938 Z M 501.523438 278.066406 C 515.839844 276.609375 518.457031 256.550781 518.457031 256.550781 C 518.457031 256.550781 517.628906 261.257812 505.933594 266.164062 C 494.203125 271.039062 481.511719 264.042969 462.957031 267.128906 C 444.402344 270.210938 437.246094 286.519531 437.246094 286.519531 C 437.246094 286.519531 447.515625 277.902344 461.003906 274.617188 C 474.488281 271.371094 487.179688 279.523438 501.523438 278.066406 Z M 425.648438 286.519531 C 425.648438 286.519531 434.59375 268.289062 447.617188 261.921875 C 460.636719 255.558594 472.203125 259.46875 483.433594 259.136719 C 494.667969 258.804688 500.199219 247.734375 500.199219 247.734375 C 500.199219 247.734375 495.628906 251.148438 485.554688 252.9375 C 475.449219 254.730469 459.179688 250.023438 444.203125 255.226562 C 429.226562 260.464844 425.648438 286.519531 425.648438 286.519531 Z M 427.4375 261.691406 C 436.382812 249.457031 452.585938 247.203125 458.78125 247.039062 C 464.980469 246.871094 470.347656 245.578125 472.964844 243.691406 C 475.582031 241.835938 477.203125 239.382812 477.203125 239.382812 C 477.203125 239.382812 475.25 241.003906 471.109375 241.734375 C 466.964844 242.464844 463.289062 241.070312 454.507812 241.667969 C 445.660156 242.230469 431.582031 249.390625 431.582031 249.390625 C 431.582031 249.390625 431.710938 248.496094 432.804688 245.8125 C 433.898438 243.128906 438.371094 239.015625 438.371094 239.015625 C 438.371094 239.015625 426.3125 243.425781 419.488281 254.496094 C 412.660156 265.570312 409.378906 286.253906 409.378906 286.253906 L 413.988281 278.464844 C 413.988281 278.464844 413.589844 280.023438 413.257812 283.4375 C 412.925781 286.851562 414.152344 295.003906 414.152344 295.003906 C 414.152344 295.003906 418.492188 273.890625 427.4375 261.691406 Z M 462.757812 341.382812 C 462.757812 341.382812 463.089844 337.136719 459.675781 326.066406 C 456.265625 314.996094 441.753906 301.46875 427.273438 300.808594 C 412.792969 300.144531 404.808594 325.070312 404.808594 325.070312 C 404.808594 325.070312 396.824219 300.144531 382.34375 300.808594 C 367.863281 301.46875 353.351562 314.960938 349.9375 326.066406 C 346.527344 337.136719 346.859375 341.382812 346.859375 341.382812 C 346.859375 341.382812 351.5625 339.589844 359.382812 339.589844 C 367.203125 339.589844 373.53125 342.042969 373.53125 342.042969 C 373.53125 342.042969 373.730469 339.589844 373.132812 338.398438 C 372.535156 337.171875 371.046875 336.242188 371.046875 336.242188 C 371.046875 336.242188 378.699219 338 380.71875 342.078125 C 382.742188 346.15625 384.464844 357.226562 384.960938 359.84375 C 385.457031 362.464844 379.824219 365.714844 377.140625 369.292969 C 374.457031 372.875 373.796875 378.078125 373.960938 385.105469 C 374.125 392.101562 372.335938 393.890625 369.390625 400.253906 C 366.472656 406.617188 369.058594 420.941406 378.335938 423.390625 C 387.613281 425.84375 402.589844 423.390625 402.917969 417.523438 C 403.25 411.65625 402.421875 406.785156 398.511719 404.496094 C 394.601562 402.210938 387.84375 399.292969 384.996094 394.816406 C 382.144531 390.34375 384.429688 385.039062 384.429688 385.039062 C 384.429688 385.039062 384.929688 389.515625 386.550781 390.808594 C 388.175781 392.101562 389.566406 392.429688 389.566406 392.429688 C 389.566406 392.429688 388.339844 389.746094 388.738281 389.183594 C 389.136719 388.617188 393.609375 390.011719 396.0625 390.011719 C 398.511719 390.011719 402.058594 389.945312 403.382812 390.507812 L 404.710938 391.070312 L 406.066406 390.507812 C 407.425781 389.945312 410.9375 390.011719 413.390625 390.011719 C 415.84375 390.011719 420.316406 388.617188 420.710938 389.183594 C 421.109375 389.746094 419.882812 392.429688 419.882812 392.429688 C 419.882812 392.429688 421.277344 392.101562 422.898438 390.808594 C 424.523438 389.515625 425.019531 385.039062 425.019531 385.039062 C 425.019531 385.039062 427.304688 390.34375 424.457031 394.816406 C 421.605469 399.292969 414.847656 402.242188 410.9375 404.496094 C 407.027344 406.785156 406.234375 411.65625 406.53125 417.523438 C 406.863281 423.390625 421.839844 425.84375 431.117188 423.390625 C 440.394531 420.941406 443.011719 406.617188 440.0625 400.253906 C 437.113281 393.890625 435.324219 392.101562 435.488281 385.105469 C 435.65625 378.109375 434.992188 372.90625 432.308594 369.292969 C 429.625 365.714844 423.992188 362.464844 424.488281 359.84375 C 424.988281 357.226562 426.675781 346.15625 428.730469 342.078125 C 430.753906 338 438.40625 336.242188 438.40625 336.242188 C 438.40625 336.242188 436.949219 337.171875 436.320312 338.398438 C 435.722656 339.625 435.921875 342.042969 435.921875 342.042969 C 435.921875 342.042969 442.28125 339.589844 450.070312 339.589844 C 458.054688 339.589844 462.757812 341.382812 462.757812 341.382812 Z M 462.757812 341.382812 " fill-opacity="1" fill-rule="evenodd"/></g></svg>