<svg xmlns="http://www.w3.org/2000/svg" xmlns:xlink="http://www.w3.org/1999/xlink" width="1080" zoomAndPan="magnify" viewBox="0 0 810 809.999993" height="1080" preserveAspectRatio="xMidYMid meet" version="1.0"><defs><clipPath id="6c089aa7e7"><path d="M 272 256.265625 L 528.058594 256.265625 L 528.058594 530.714844 L 272 530.714844 Z M 272 256.265625 " clip-rule="nonzero"/></clipPath></defs><path fill="#ff0059" d="M 165.082031 149.222656 L 288.378906 82.421875 C 289.933594 81.578125 291.679688 81.148438 293.449219 81.171875 L 533.921875 84.238281 C 535.640625 84.261719 537.328125 84.710938 538.832031 85.546875 L 649.550781 147.203125 C 652.058594 148.601562 653.875 150.972656 654.566406 153.757812 C 655.257812 156.542969 654.765625 159.492188 653.203125 161.898438 L 653.007812 162.195312 C 636.328125 187.90625 621.648438 211.046875 621.042969 241.777344 C 620.679688 260.175781 625.300781 281.652344 631.316406 309.21875 C 635.585938 328.796875 640.429688 350.972656 644.09375 376.042969 C 652.710938 434.964844 655.351562 513.035156 626.714844 563.539062 C 603.503906 604.472656 560.59375 625.726562 525.769531 643.242188 C 516.894531 647.703125 508.523438 651.917969 500.820312 656.199219 C 462.585938 677.453125 439.613281 701.101562 415.769531 725.695312 C 413.8125 727.714844 411.117188 728.851562 408.304688 728.84375 C 405.492188 728.839844 402.800781 727.6875 400.855469 725.660156 L 400.847656 725.652344 L 400.597656 725.394531 L 400.605469 725.398438 C 373.8125 697.496094 347.945312 670.683594 307.621094 648.429688 C 299.523438 643.960938 290.808594 639.65625 281.609375 635.113281 C 272.03125 630.382812 261.964844 625.414062 252.070312 619.957031 C 224.03125 604.480469 195.832031 584.261719 180.261719 550.730469 C 154.765625 495.820312 164.929688 408.007812 175.777344 352.871094 C 179.921875 331.808594 184.296875 314.90625 187.96875 300.71875 C 190.707031 290.128906 192.992188 281.28125 194.585938 273.1875 L 194.585938 273.191406 C 196.566406 263.117188 197.382812 254.644531 196.664062 246.230469 C 194.519531 221.167969 178.765625 193.808594 161.074219 163.566406 C 159.65625 161.140625 159.28125 158.246094 160.039062 155.542969 C 160.792969 152.839844 162.613281 150.558594 165.082031 149.222656 M 174.953125 167.445312 L 178.964844 153.101562 C 195.859375 181.980469 214.6875 213.75 217.316406 244.464844 C 218.257812 255.484375 217.117188 266.03125 214.921875 277.191406 C 213.1875 286.003906 210.730469 295.480469 208.035156 305.910156 C 204.367188 320.078125 200.128906 336.46875 196.113281 356.875 C 185.15625 412.5625 176.753906 493.957031 199.0625 542 C 211.824219 569.488281 235.277344 587.015625 262.085938 601.808594 C 271.5 607.003906 281.136719 611.765625 290.785156 616.527344 C 299.902344 621.03125 309.042969 625.539062 317.632812 630.28125 C 361 654.214844 388.78125 683.160156 415.554688 711.042969 L 415.558594 711.050781 L 415.808594 711.308594 L 400.890625 711.269531 C 424.816406 686.585938 449.613281 660.953125 490.75 638.085938 C 498.890625 633.558594 507.671875 629.144531 516.457031 624.726562 C 552.402344 606.648438 589.09375 587.867188 608.683594 553.316406 C 633.535156 509.488281 632.1875 437.863281 623.585938 379.042969 C 620.039062 354.773438 615.34375 333.257812 611.066406 313.636719 C 605.226562 286.867188 599.898438 262.730469 600.320312 241.367188 C 601.058594 203.929688 619.28125 176.101562 635.621094 150.914062 L 635.816406 150.617188 L 639.464844 165.3125 L 528.746094 103.65625 L 533.65625 104.964844 L 293.183594 101.894531 L 298.253906 100.644531 Z M 174.953125 167.445312 " fill-opacity="1" fill-rule="nonzero"/><path fill="#ff0059" d="M 300.113281 110.105469 L 299.964844 110.144531 L 194.5625 167.246094 C 194.4375 167.316406 194.375 167.460938 194.417969 167.601562 C 194.441406 167.683594 194.5 167.75 194.574219 167.789062 L 194.546875 167.789062 C 208.972656 192.640625 223.355469 219.292969 225.566406 245.125 L 225.566406 245.128906 C 226.453125 255.496094 225.378906 265.4375 223.308594 275.960938 L 223.300781 276.019531 L 223.296875 276.023438 C 221.671875 284.265625 219.375 293.140625 216.851562 302.902344 C 216.839844 302.933594 216.800781 303.089844 216.800781 303.089844 L 216.664062 303.621094 C 213.234375 316.875 209.28125 332.234375 205.535156 351.257812 L 205.53125 351.316406 L 205.523438 351.320312 C 195.175781 403.929688 187.226562 480.898438 208.34375 526.378906 C 220.445312 552.441406 242.679688 569.042969 268.027344 583.035156 L 268.03125 583.039062 C 276.925781 587.945312 286.050781 592.453125 295.15625 596.949219 L 295.285156 597.011719 L 295.410156 597.074219 C 303.949219 601.289062 312.480469 605.503906 320.519531 609.9375 C 357.808594 630.519531 382.890625 655.019531 406.183594 679.140625 C 406.242188 679.203125 406.320312 679.234375 406.402344 679.234375 C 406.441406 679.234375 406.480469 679.226562 406.515625 679.210938 C 406.558594 679.195312 406.59375 679.171875 406.621094 679.140625 L 406.621094 679.144531 C 427.171875 658.109375 449.589844 636.660156 484.394531 617.3125 C 492.054688 613.054688 500.3125 608.898438 508.582031 604.738281 L 508.675781 604.695312 L 508.675781 604.691406 C 542.625 587.617188 577.386719 569.839844 595.953125 537.09375 C 619.492188 495.582031 618.203125 427.804688 610.070312 372.222656 C 606.71875 349.300781 602.292969 328.988281 598.25 310.460938 L 598.242188 310.464844 L 598.242188 310.460938 L 598.25 310.464844 C 598.246094 310.441406 598.242188 310.417969 598.238281 310.394531 L 598.039062 309.488281 L 597.84375 308.585938 C 592.480469 284.007812 587.699219 261.835938 588.089844 242.175781 C 588.703125 211.113281 602.085938 187.066406 615.820312 165.511719 L 615.789062 165.515625 C 615.875 165.472656 615.945312 165.394531 615.96875 165.296875 C 615.996094 165.167969 615.9375 165.03125 615.816406 164.964844 L 522.464844 112.980469 L 522.46875 112.984375 C 522.425781 112.957031 522.375 112.941406 522.320312 112.941406 Z M 300.113281 110.105469 " fill-opacity="1" fill-rule="nonzero"/><g clip-path="url(#6c089aa7e7)"><path fill="#ffffff" d="M 527.875 464.589844 C 528.191406 461.667969 528.164062 458.742188 527.398438 455.839844 C 526.441406 452.214844 524.535156 449.082031 522.628906 445.929688 C 521.476562 444.019531 520.285156 442.109375 519.417969 440.070312 C 519.019531 439.144531 519.316406 438.300781 519.75 437.644531 C 520.53125 436.480469 520.890625 435.089844 520.714844 433.699219 C 520.652344 433.175781 520.570312 432.65625 520.46875 432.132812 C 520.28125 431.175781 520.601562 430.691406 521.394531 430.238281 C 524.488281 428.476562 524.785156 424.402344 522.023438 419.1875 C 518.824219 414.25 521.40625 409.386719 522.1875 408.324219 C 522.839844 407.421875 523.566406 406.566406 524.3125 405.75 C 526.835938 402.992188 527.480469 396.84375 524.925781 393.785156 C 523.917969 392.574219 522.960938 391.328125 521.921875 390.148438 C 521.085938 389.195312 520.796875 388.164062 521.078125 386.941406 C 521.488281 385.21875 521.878906 383.488281 522.269531 381.757812 C 522.734375 379.6875 523.289062 377.589844 522.128906 375.589844 C 521.324219 374.199219 520.386719 372.882812 519.441406 371.582031 C 518.441406 370.195312 517.398438 368.828125 517.398438 367.03125 C 517.402344 365.707031 517.414062 364.363281 517.660156 363.070312 C 518.132812 360.605469 517.332031 358.664062 515.464844 357.136719 C 514.125 356.035156 512.695312 355.054688 511.324219 353.996094 C 509.875 352.875 508.566406 351.648438 507.785156 349.917969 C 506.910156 347.964844 505.949219 346.054688 505.003906 344.140625 C 504.351562 342.8125 503.324219 341.691406 502.046875 340.949219 C 500.171875 339.859375 498.113281 339.273438 496.003906 339.046875 C 494.128906 338.851562 492.789062 338.039062 491.65625 336.582031 C 489.679688 334.039062 487.160156 332.488281 483.789062 332.640625 C 482.339844 332.710938 480.894531 332.679688 479.4375 332.648438 C 479.003906 332.632812 478.496094 332.585938 478.15625 332.351562 C 477.179688 331.671875 476.222656 330.953125 475.359375 330.140625 C 473.417969 328.3125 471.390625 326.65625 468.789062 325.800781 C 466.882812 325.171875 465.140625 325.265625 463.523438 326.53125 C 463.164062 326.808594 462.75 327.015625 462.390625 327.292969 C 459.941406 329.1875 457.367188 329.105469 454.699219 327.839844 C 453.539062 327.292969 452.394531 326.699219 451.207031 326.226562 C 450.449219 325.933594 449.601562 325.617188 448.832031 325.691406 C 447.257812 325.84375 445.832031 326.480469 444.597656 327.554688 C 442.5 329.378906 440.167969 329.851562 437.597656 328.550781 C 436.605469 328.046875 435.523438 327.675781 434.601562 327.066406 C 432.933594 325.964844 431.265625 326.113281 429.542969 326.800781 C 428.964844 327.027344 428.410156 327.324219 427.816406 327.492188 C 426.835938 327.78125 425.84375 328.167969 424.839844 328.199219 C 423.15625 328.253906 421.449219 328.121094 419.769531 327.964844 C 418.265625 327.828125 416.921875 328.152344 415.632812 328.921875 C 414.425781 329.640625 413.191406 330.324219 411.933594 330.949219 C 409.78125 332 407.703125 331.90625 405.804688 330.3125 C 405.355469 329.941406 404.890625 329.589844 404.476562 329.191406 C 403.050781 327.839844 401.433594 327.234375 399.484375 327.792969 C 399.246094 327.863281 399.003906 327.921875 398.765625 327.984375 C 396.964844 328.46875 395.136719 329.023438 393.289062 328.53125 C 391.667969 328.097656 390.101562 327.429688 388.558594 326.742188 C 384.894531 325.113281 385.800781 325.277344 382.703125 326.691406 C 381.042969 327.453125 379.324219 327.800781 377.507812 327.449219 C 374.429688 326.851562 377.066406 322.292969 374.414062 319.46875 C 373.832031 318.84375 372.855469 318.6875 372.03125 318.535156 C 369.574219 318.082031 368.304688 316.855469 367.644531 314.453125 C 367.277344 313.128906 367.582031 311.992188 368.078125 310.859375 C 368.765625 309.277344 368.511719 308.019531 367.191406 306.886719 C 366.59375 306.371094 366.113281 305.722656 365.78125 305.003906 C 365.269531 303.902344 364.996094 302.785156 366.058594 301.695312 C 366.0625 301.6875 366.078125 301.675781 366.082031 301.667969 C 367.171875 300.523438 366.988281 298.679688 365.738281 297.71875 C 365.429688 297.476562 365.121094 297.246094 364.8125 297 C 363.773438 296.179688 363.28125 295.113281 363.179688 293.789062 C 362.992188 291.265625 364.214844 289.421875 365.996094 287.878906 C 367.179688 286.855469 368.5 286.273438 370.199219 286.476562 C 371.445312 286.628906 372.792969 286.5 374.007812 286.1875 C 379.847656 284.664062 385.375 282.355469 390.523438 279.195312 C 391.476562 278.601562 392.339844 277.746094 393.027344 276.847656 C 394.191406 275.316406 394.078125 274.449219 392.855469 272.96875 C 392.699219 272.78125 392.523438 272.597656 392.347656 272.421875 C 389.875 269.960938 386.6875 269.242188 383.402344 268.960938 C 380.824219 268.742188 378.222656 268.394531 375.617188 268.890625 C 373.074219 269.375 370.496094 269.660156 367.984375 270.265625 C 364.503906 271.101562 361.261719 272.722656 357.636719 273.203125 C 355.9375 273.429688 354.988281 272.976562 354.105469 271.78125 C 353.988281 271.617188 353.910156 271.414062 353.777344 271.25 C 352.273438 269.390625 350.894531 267.324219 347.976562 267.757812 C 348.699219 265.941406 348.5 265.261719 346.960938 264.460938 C 346.503906 264.222656 345.960938 264.101562 345.441406 264.015625 C 344.507812 263.855469 343.691406 263.699219 343.4375 262.527344 C 343.355469 262.136719 342.707031 261.667969 342.265625 261.589844 C 341.035156 261.394531 339.742188 261.164062 338.558594 261.929688 C 338.472656 261.835938 338.367188 261.761719 338.316406 261.660156 C 337.371094 259.847656 335.804688 258.992188 333.839844 258.765625 C 332.542969 258.613281 331.292969 258.835938 330.089844 259.34375 C 329.074219 259.773438 328.199219 259.765625 327.453125 258.777344 C 327.0625 258.261719 326.496094 257.871094 325.992188 257.4375 C 324.796875 256.398438 323.695312 256.265625 322.367188 257.140625 C 321.660156 257.601562 321.082031 258.25 320.390625 258.859375 C 319.101562 257.960938 317.601562 257.941406 316.128906 258.273438 C 314.574219 258.625 313.378906 259.558594 312.851562 261.074219 C 311.105469 261.105469 309.359375 260.519531 307.980469 261.835938 C 306.683594 263.078125 306.800781 264.855469 306.449219 266.550781 C 305.894531 266.59375 305.375 266.65625 304.84375 266.664062 C 302.363281 266.707031 300.949219 268.664062 301.640625 271.058594 C 301.773438 271.511719 301.824219 272.050781 301.703125 272.492188 C 301.507812 273.191406 301.132812 273.839844 300.816406 274.523438 C 299.972656 274.019531 299.191406 273.484375 298.363281 273.0625 C 295.871094 271.804688 293.207031 271.101562 290.457031 270.605469 C 286.347656 269.859375 282.246094 269.617188 278.132812 270.414062 C 276.15625 270.796875 274.164062 271.308594 272.691406 272.875 C 272.144531 273.460938 272.03125 274.324219 272.386719 275.039062 C 273.117188 276.488281 274.492188 277.269531 275.640625 278.277344 C 279.789062 281.894531 284.722656 283.800781 290.042969 284.839844 C 293.152344 285.445312 296.261719 286.042969 299.199219 287.132812 C 297.882812 289.1875 296.449219 291.121094 295.285156 293.199219 C 293.503906 296.371094 291.761719 299.574219 290.273438 302.890625 C 288.984375 305.773438 289.054688 308.707031 291.238281 311.292969 C 291.660156 311.789062 292.085938 312.273438 292.476562 312.734375 C 291.382812 313.238281 291.390625 313.671875 291.648438 314.621094 C 292.054688 316.140625 292.394531 317.707031 293.074219 319.097656 C 294.175781 321.355469 295.6875 323.414062 298.28125 324.101562 C 301.507812 324.960938 304.808594 325.011719 308.136719 324.535156 C 310.25 324.226562 312.402344 324.132812 314.542969 324.039062 C 315.726562 323.988281 316.457031 324.734375 316.773438 325.84375 C 317.519531 328.460938 317.15625 330.886719 315.191406 332.859375 C 314.261719 333.800781 313.996094 334.8125 314.246094 336.015625 C 314.492188 337.183594 314.800781 338.347656 315.085938 339.515625 C 315.40625 340.835938 315.832031 342.144531 316.015625 343.484375 C 316.253906 345.226562 315.34375 346.769531 314.890625 348.402344 C 314.460938 349.941406 313.945312 351.507812 313.871094 353.082031 C 313.8125 354.308594 314.296875 355.59375 314.667969 356.808594 C 315.003906 357.898438 315.054688 358.96875 314.582031 359.957031 C 313.996094 361.175781 313.296875 362.359375 312.523438 363.472656 C 310.226562 366.785156 309.195312 370.1875 311.265625 374.027344 C 311.75 374.929688 312.007812 375.953125 312.308594 376.941406 C 313.183594 379.78125 313.234375 382.734375 313.410156 385.660156 C 313.542969 387.792969 314.058594 389.75 316.046875 390.964844 C 316.027344 391.292969 316.046875 391.589844 315.992188 391.863281 C 315.558594 393.921875 315.109375 395.980469 314.667969 398.039062 C 314.179688 400.34375 314.636719 402.3125 316.652344 403.746094 C 317.054688 404.035156 317.445312 404.34375 317.816406 404.671875 C 320.421875 406.957031 321.421875 409.929688 321.523438 413.300781 C 321.605469 415.964844 321.699219 416.050781 324.25 416.808594 C 324.5625 416.902344 324.910156 416.945312 325.199219 417.097656 C 325.960938 417.492188 326.777344 417.84375 327.441406 418.378906 C 329.011719 419.664062 329.269531 421.550781 329.464844 423.414062 C 329.625 424.9375 329.660156 426.472656 329.863281 427.992188 C 329.996094 428.964844 330.246094 429.941406 330.585938 430.867188 C 331.160156 432.429688 332.34375 433.214844 334.027344 433.207031 C 334.980469 433.203125 335.9375 433.207031 336.886719 433.222656 C 338.554688 433.238281 339.316406 433.863281 339.59375 435.492188 C 339.839844 436.921875 339.894531 438.320312 339.523438 439.632812 C 339.132812 441.023438 339.453125 442.523438 340.429688 443.585938 C 341.765625 445.035156 342.867188 447.238281 340.492188 449.640625 C 340.214844 449.949219 339.9375 450.265625 339.730469 450.617188 C 339.183594 451.542969 339.296875 451.914062 340.226562 452.523438 C 340.605469 452.777344 340.972656 453.050781 341.359375 453.277344 C 344.066406 454.847656 344.867188 456.644531 344.230469 459.710938 C 343.984375 460.882812 343.820312 462.078125 343.5625 463.242188 C 342.425781 468.347656 343.003906 473.269531 345 478.070312 C 345.617188 479.554688 346.183594 481.078125 346.597656 482.632812 C 347.289062 485.214844 347.203125 487.871094 347.265625 490.519531 C 347.484375 500.011719 345.535156 509.1875 343.433594 518.351562 C 342.765625 521.25 342.003906 524.128906 341.324219 527.023438 C 340.894531 528.855469 341.34375 529.710938 343.191406 530.050781 C 344.929688 530.363281 346.742188 530.605469 348.480469 530.445312 C 350.492188 530.265625 352.375 529.578125 353.695312 527.742188 C 355.382812 525.394531 356.203125 522.730469 356.9375 520.019531 C 357.152344 519.230469 357.5 518.671875 358.222656 518.320312 C 358.777344 518.046875 359.347656 517.785156 359.863281 517.445312 C 360.683594 516.910156 361.558594 516.40625 362.238281 515.71875 C 363.84375 514.089844 363.722656 514.082031 362.828125 511.917969 C 361.59375 508.941406 360.34375 505.957031 359.378906 502.894531 C 358.5 500.105469 357.769531 497.226562 357.367188 494.332031 C 356.546875 488.429688 357.039062 482.5 357.882812 476.640625 C 358.566406 471.863281 359.695312 467.152344 360.574219 462.398438 C 360.59375 462.296875 360.613281 462.199219 360.625 462.097656 C 360.890625 460.347656 362.238281 458.988281 363.980469 458.6875 C 363.992188 458.6875 364 458.679688 364.011719 458.679688 C 365.609375 458.402344 366.265625 457.136719 365.691406 455.625 C 365.441406 454.972656 365.101562 454.332031 364.957031 453.65625 C 364.855469 453.183594 364.847656 452.542969 365.09375 452.171875 C 365.894531 450.976562 366.78125 449.832031 367.738281 448.753906 C 367.78125 448.703125 367.828125 448.660156 367.871094 448.609375 C 368.882812 447.539062 369.15625 445.972656 368.613281 444.605469 C 368.410156 444.101562 368.3125 443.585938 368.28125 443.050781 C 368.109375 440.328125 368.550781 438.953125 371.261719 438.351562 C 372.949219 437.980469 374.625 437.980469 376.296875 438.363281 C 377.777344 438.703125 378.542969 439.628906 378.644531 441.121094 C 378.765625 442.863281 378.542969 444.511719 377.328125 445.890625 C 377.179688 446.058594 377.128906 446.3125 377.003906 446.589844 C 377.398438 446.851562 377.734375 447.085938 378.078125 447.300781 C 380.023438 448.507812 380.519531 450.277344 379.457031 452.292969 C 379.167969 452.839844 378.820312 453.359375 378.574219 453.925781 C 378.386719 454.355469 378.324219 454.832031 378.203125 455.269531 C 380.898438 456.375 382.214844 458.835938 381.636719 461.585938 C 381.382812 462.800781 380.988281 463.980469 380.714844 465.191406 C 379.464844 470.820312 379.835938 476.289062 382.410156 481.527344 C 382.679688 482.078125 382.898438 482.664062 383.125 483.242188 C 384.265625 486.152344 384.308594 489.261719 384.515625 492.289062 C 384.9375 498.242188 384.769531 504.222656 383.75 510.117188 C 382.976562 514.59375 381.898438 519.023438 380.941406 523.46875 C 380.671875 524.71875 380.3125 525.953125 380.113281 527.21875 C 379.847656 528.890625 380.148438 529.445312 381.785156 529.828125 C 383.429688 530.21875 385.117188 530.507812 386.796875 530.585938 C 390.371094 530.75 393.082031 529.21875 394.550781 525.910156 C 395.367188 524.066406 395.921875 522.109375 396.527344 520.175781 C 396.726562 519.546875 396.914062 519.085938 397.621094 518.839844 C 399.585938 518.15625 401.144531 516.878906 402.503906 515.328125 C 402.882812 514.894531 402.984375 514.554688 402.710938 514.015625 C 401.53125 511.648438 400.382812 509.261719 399.238281 506.875 C 397.011719 502.238281 395.601562 497.324219 395.378906 492.207031 C 394.996094 483.414062 395.417969 474.664062 397.902344 466.125 C 398.289062 464.804688 398.300781 463.378906 398.484375 462.054688 C 399.640625 461.925781 400.824219 461.933594 401.9375 461.664062 C 403.40625 461.304688 404.160156 459.8125 403.613281 458.410156 C 403.390625 457.84375 403.148438 457.28125 402.882812 456.734375 C 402.511719 455.960938 402.582031 455.25 403.027344 454.507812 C 403.902344 453.066406 404.996094 451.875 406.484375 451.027344 C 408.289062 449.992188 408.382812 449.574219 407.578125 447.609375 C 407.433594 447.261719 407.238281 446.929688 407.175781 446.570312 C 407.003906 445.644531 406.714844 444.6875 406.804688 443.777344 C 407.011719 441.671875 408.070312 439.886719 409.25 438.199219 C 410.171875 439.167969 411.039062 440.101562 411.914062 441.019531 C 412.492188 441.628906 413.199219 441.894531 414.042969 441.824219 C 415.238281 441.722656 416.453125 441.75 417.621094 441.527344 C 419.402344 441.1875 420.921875 441.636719 422.234375 442.789062 C 424.488281 444.757812 426.980469 445.027344 429.777344 444.191406 C 432.820312 443.277344 435.9375 442.96875 439.097656 443.582031 C 441.042969 443.957031 442.992188 444.324219 444.945312 444.683594 C 446.824219 445.023438 448.636719 444.941406 449.910156 443.285156 C 450.578125 442.417969 451.320312 442.554688 452.207031 442.628906 C 453.671875 442.75 455.152344 442.738281 456.632812 442.738281 C 457.179688 442.738281 457.71875 442.617188 458.265625 442.554688 C 458.847656 442.484375 459.414062 442.75 459.726562 443.242188 C 460.25 444.078125 460.886719 444.878906 461.230469 445.785156 C 462.761719 449.804688 464.238281 453.847656 465.667969 457.90625 C 466.492188 460.253906 466.667969 462.707031 466.203125 465.136719 C 465.695312 467.8125 464.96875 470.449219 464.371094 473.105469 C 463.019531 479.097656 460.921875 484.855469 458.683594 490.550781 C 456.316406 496.554688 453.570312 502.410156 451.21875 508.414062 C 449.179688 513.605469 447.429688 518.910156 445.617188 524.191406 C 445.058594 525.820312 445.535156 526.53125 447.226562 526.816406 C 448.695312 527.066406 450.199219 527.097656 451.652344 527.382812 C 454 527.835938 455.351562 526.757812 456.4375 524.808594 C 456.925781 523.921875 457.796875 523.128906 458.675781 522.585938 C 459.964844 521.785156 461.40625 521.214844 462.8125 520.609375 C 466.839844 518.871094 469.023438 515.6875 469.90625 511.523438 C 470.269531 509.785156 470.300781 507.976562 470.710938 506.253906 C 471.800781 501.671875 472.792969 497.046875 474.214844 492.566406 C 476.394531 485.710938 478.917969 478.96875 481.257812 472.167969 C 482.65625 468.105469 484.375 464.148438 484.945312 459.832031 C 485.488281 455.722656 485.375 451.757812 483.140625 448.066406 C 482.738281 447.402344 482.554688 446.496094 482.566406 445.707031 C 482.625 443.144531 482.886719 440.585938 482.925781 438.023438 C 482.945312 436.800781 483.460938 436.117188 484.46875 435.472656 C 485.777344 434.636719 486.984375 433.65625 488.1875 432.660156 C 489.070312 431.929688 490.257812 431.773438 491.03125 432.59375 C 491.691406 433.289062 492.308594 434.128906 492.664062 435.015625 C 495.21875 442.277344 499.867188 443.761719 500.277344 444.59375 C 500.988281 446.035156 501.78125 447.445312 502.417969 448.925781 C 503.769531 452.078125 505.03125 455.273438 506.34375 458.445312 C 507.554688 461.359375 508.710938 464.292969 508.957031 467.464844 C 509.144531 469.894531 509.171875 472.34375 509.242188 474.785156 C 509.480469 483.230469 509.636719 491.683594 508.8125 500.105469 C 508.433594 503.960938 507.730469 507.800781 506.972656 511.609375 C 506.269531 515.179688 505.269531 518.683594 504.480469 522.234375 C 504.136719 523.789062 503.695312 525.355469 503.960938 526.972656 C 505.226562 527.1875 506.074219 527.25 506.671875 526.316406 C 507.308594 525.335938 507.679688 524.460938 508.328125 523.484375 C 508.234375 526.128906 509.222656 527.15625 511.417969 527.726562 C 513.898438 528.375 516.425781 528.527344 518.902344 527.777344 C 521.121094 527.105469 523.054688 525.976562 523.484375 523.410156 C 523.847656 521.25 524.074219 519.074219 524.40625 516.910156 C 524.679688 515.160156 524.957031 513.410156 525.359375 511.683594 C 525.792969 509.835938 526.1875 508.027344 525.816406 506.082031 C 525.464844 504.246094 525.132812 501.199219 525.039062 499.332031 C 524.746094 493.691406 524.917969 488.066406 525.710938 482.445312 C 526.546875 476.507812 527.226562 470.550781 527.875 464.589844 Z M 527.875 464.589844 " fill-opacity="1" fill-rule="nonzero"/></g></svg>