<svg xmlns="http://www.w3.org/2000/svg" xmlns:xlink="http://www.w3.org/1999/xlink" width="1080" zoomAndPan="magnify" viewBox="0 0 810 809.999993" height="1080" preserveAspectRatio="xMidYMid meet" version="1.0"><defs><clipPath id="d7c81c25d1"><path d="M 307 294 L 469 294 L 469 516.835938 L 307 516.835938 Z M 307 294 " clip-rule="nonzero"/></clipPath><clipPath id="2abdfbee9b"><path d="M 278.234375 347 L 288 347 L 288 357 L 278.234375 357 Z M 278.234375 347 " clip-rule="nonzero"/></clipPath><clipPath id="1ce15ff17c"><path d="M 498 294 L 531.734375 294 L 531.734375 351 L 498 351 Z M 498 294 " clip-rule="nonzero"/></clipPath></defs><path fill="#f4ce59" d="M 230.320312 89.753906 L 230.316406 89.753906 L 231.222656 89.683594 C 285.292969 85.457031 339.800781 81.214844 397.691406 81.03125 C 398.925781 81.027344 400.40625 81.023438 401.644531 81.023438 C 458.636719 81.023438 518.710938 84.851562 578.371094 88.652344 C 583.515625 88.980469 587.636719 93.03125 588.046875 98.167969 C 590.296875 126.144531 592.535156 148.835938 602.621094 161.328125 C 612.3125 173.332031 630.800781 177.441406 655.050781 182.160156 C 660.53125 183.226562 664.183594 188.441406 663.3125 193.957031 C 648.351562 288.5625 633.1875 384.925781 590.722656 474.210938 C 548.316406 563.378906 478.914062 644.992188 410.691406 725.3125 C 408.722656 727.632812 405.832031 728.96875 402.785156 728.96875 C 399.742188 728.96875 396.851562 727.628906 394.882812 725.308594 L 394.886719 725.308594 L 394.386719 724.722656 L 394.386719 724.71875 C 323.074219 640.652344 250.570312 555.199219 208.945312 466.582031 C 167.09375 377.488281 156.667969 285.714844 146.375 195.839844 C 145.738281 190.285156 149.621094 185.226562 155.152344 184.40625 C 181.40625 180.5 200.933594 176.96875 210.234375 165.152344 C 219.921875 152.847656 220.582031 129.496094 220.761719 100.027344 C 220.792969 94.640625 224.949219 90.175781 230.320312 89.753906 M 231.9375 110.425781 L 241.496094 100.152344 C 241.335938 126.398438 241.660156 158.757812 226.527344 177.976562 C 211.011719 197.683594 181.242188 201.488281 158.203125 204.914062 L 166.976562 193.480469 C 177.316406 283.796875 187.527344 372.21875 227.710938 457.769531 C 267.933594 543.394531 338.398438 626.664062 410.199219 711.308594 L 410.195312 711.304688 L 410.695312 711.890625 L 394.886719 711.890625 C 463.527344 631.078125 530.972656 551.566406 571.996094 465.308594 C 612.960938 379.171875 627.792969 285.820312 642.832031 190.714844 L 651.089844 202.511719 C 629.382812 198.289062 601.914062 193.457031 586.488281 174.351562 C 571.453125 155.730469 569.410156 125.136719 567.378906 99.828125 L 577.054688 109.34375 C 517.257812 105.539062 457.855469 101.757812 401.644531 101.757812 C 400.40625 101.757812 398.992188 101.761719 397.757812 101.765625 L 397.753906 101.765625 C 340.757812 101.945312 286.996094 106.121094 232.839844 110.355469 L 232.84375 110.355469 Z M 231.9375 110.425781 " fill-opacity="1" fill-rule="nonzero"/><path fill="#f4ce59" d="M 400.84375 116.851562 C 399.628906 116.851562 398.472656 116.851562 397.257812 116.859375 C 397.246094 116.855469 397.234375 116.855469 397.226562 116.855469 L 397.222656 116.859375 C 346.933594 117.015625 299.339844 120.511719 251.59375 124.234375 C 251.4375 124.246094 251.320312 124.378906 251.324219 124.535156 L 251.351562 124.539062 C 251.132812 147.074219 249.886719 172.253906 237.535156 187.941406 C 225.164062 203.65625 202.972656 208.464844 183.296875 211.539062 C 183.144531 211.5625 183.039062 211.699219 183.050781 211.847656 C 183.054688 211.917969 183.082031 211.976562 183.125 212.023438 L 183.097656 212.023438 C 192.398438 292.859375 202.554688 372.066406 238.601562 448.808594 C 274.792969 525.851562 337.25 600.832031 401.695312 676.863281 C 401.753906 676.929688 401.832031 676.964844 401.917969 676.964844 C 401.953125 676.964844 401.984375 676.957031 402.019531 676.945312 C 402.066406 676.929688 402.109375 676.898438 402.140625 676.859375 L 402.140625 676.863281 C 463.488281 604.574219 523 533.117188 559.757812 455.832031 C 596.578125 378.398438 610.738281 294.722656 624.265625 209.402344 L 624.222656 209.402344 C 624.28125 209.351562 624.320312 209.28125 624.328125 209.199219 C 624.335938 209.050781 624.238281 208.921875 624.09375 208.894531 C 605.777344 205.160156 585.414062 199.675781 573.214844 184.5625 C 560.898438 169.308594 557.980469 145.351562 556.160156 123.675781 L 556.1875 123.679688 C 556.1875 123.523438 556.070312 123.394531 555.917969 123.386719 C 503.039062 120.027344 450.601562 116.851562 400.84375 116.851562 Z M 400.84375 116.851562 " fill-opacity="1" fill-rule="nonzero"/><path fill="#ffffff" d="M 424.136719 301.566406 C 424.824219 301.390625 425.515625 301.238281 426.214844 301.105469 C 424.9375 293.414062 425.652344 281.160156 420.996094 275.21875 C 420.726562 279.234375 422.660156 287.921875 414.101562 280.925781 C 404.070312 272.722656 409.585938 258.28125 418.023438 247.820312 C 386.582031 260.125 407.632812 271.546875 403.902344 283.824219 C 403.152344 286.300781 402.007812 288.019531 400.710938 289.144531 C 401.15625 289.121094 401.589844 289.066406 402.039062 289.066406 C 411.253906 289.066406 419.558594 293.910156 424.136719 301.566406 Z M 424.136719 301.566406 " fill-opacity="1" fill-rule="nonzero"/><path fill="#ffffff" d="M 463.582031 311.152344 C 476.222656 316.011719 481.191406 332.679688 479.480469 343.144531 C 480.972656 341.484375 482.953125 339.566406 485.617188 337.203125 L 493.046875 342.574219 C 493.011719 334.574219 489.953125 327.605469 488.507812 325.621094 C 491.265625 335.957031 476.089844 334.347656 479.824219 325.824219 C 484.207031 315.824219 499.023438 314.34375 490.589844 299.886719 C 491.386719 309.441406 477.515625 312.199219 475.96875 302.917969 C 474.382812 292.464844 496.953125 287.828125 490.769531 275.457031 C 489.695312 284.640625 482.152344 280.203125 481.851562 279.382812 C 478.34375 270.957031 479.980469 264.316406 465.089844 260.835938 C 472.492188 267.96875 481.097656 277.476562 476.503906 286.871094 C 472.3125 295.429688 459.929688 282.214844 456.53125 277.417969 C 450.472656 269.195312 465.46875 258.601562 461.644531 249.070312 C 458.640625 241.582031 445.5 225.128906 438.703125 220.183594 C 448.332031 235.875 452.816406 253.132812 444.289062 259.53125 C 441.4375 261.667969 429.070312 270.742188 429.898438 248.410156 C 418.378906 262.488281 431.476562 289.246094 435.289062 300.664062 C 441.492188 301.167969 447.226562 303.328125 452.054688 306.71875 Z M 463.582031 311.152344 " fill-opacity="1" fill-rule="nonzero"/><path fill="#ffffff" d="M 320.4375 329.054688 C 319.199219 325.394531 316.804688 321.523438 315.964844 319.207031 C 315.109375 316.660156 313.902344 314.375 314.652344 311.878906 C 315.511719 309.128906 316.910156 307.34375 318.699219 303.320312 C 317.597656 306.203125 319.03125 310.695312 320.136719 313.355469 C 321.222656 315.644531 322.910156 317.539062 324 319.832031 C 324.914062 321.554688 325.917969 323.835938 326.09375 326.027344 C 328.125 325.148438 330.253906 324.464844 332.441406 323.925781 C 332.789062 321.214844 333.503906 318.792969 334.75 316.996094 C 335.070312 320.015625 335.960938 321.894531 337.09375 323.054688 C 338.722656 322.851562 340.371094 322.71875 342.058594 322.71875 C 342.496094 322.71875 342.929688 322.722656 343.363281 322.738281 C 343.363281 322.738281 343.722656 322.015625 344.011719 321.433594 C 341.449219 315.761719 336.433594 301.574219 346.210938 293.996094 C 345.101562 302.710938 348.808594 307.679688 352.257812 310.359375 C 354.847656 307.925781 357.75 305.859375 360.878906 304.21875 C 361.527344 300.554688 361.679688 295.746094 360.484375 289.742188 C 364.476562 293.847656 367.367188 297.582031 369.433594 300.957031 C 372.5625 300.160156 375.808594 299.726562 379.132812 299.726562 C 379.792969 299.726562 380.453125 299.746094 381.136719 299.789062 C 384.4375 295.179688 389.128906 291.878906 394.46875 290.242188 C 393.269531 289.703125 392.226562 288.722656 391.472656 287.398438 C 391.265625 283.21875 390.589844 278.8125 389.296875 274.195312 C 379.660156 304.402344 372.828125 294.007812 372.828125 294.007812 C 377.292969 291.128906 389.398438 272.894531 357.246094 239.8125 C 362.257812 265.054688 352.382812 277.113281 352.382812 277.113281 C 352.382812 277.113281 351.8125 277.148438 350.945312 277.042969 C 350.367188 273.175781 350.511719 268.527344 351.960938 262.996094 C 348.363281 265.785156 345.707031 269.109375 343.757812 272.679688 C 341.933594 269.734375 341.117188 264.855469 343.246094 256.742188 C 323.464844 272.066406 332.890625 294.238281 332.890625 294.238281 C 332.890625 294.238281 322.089844 296.839844 320.171875 278.710938 C 290.667969 297.4375 299.007812 324.75 308.171875 341.257812 C 311.332031 336.359375 315.519531 332.195312 320.4375 329.054688 Z M 320.4375 329.054688 " fill-opacity="1" fill-rule="nonzero"/><g clip-path="url(#d7c81c25d1)"><path fill="#ffffff" d="M 399.429688 495.164062 L 425.824219 461.613281 L 426.425781 457.601562 L 437.835938 450.875 L 444.460938 436.679688 C 455.308594 434.761719 464.226562 427.300781 468.203125 417.328125 C 455.042969 415.917969 443.953125 409.242188 437.929688 398.851562 C 430.980469 386.863281 431.703125 371.769531 439.90625 357.441406 L 448.425781 342.472656 L 449.515625 351.195312 L 454.351562 346.140625 C 455.449219 346.855469 456.445312 347.585938 457.335938 348.335938 C 457.574219 347.617188 457.867188 346.894531 458.203125 346.167969 C 451.59375 336.710938 440.640625 330.511719 428.226562 330.511719 C 417.21875 330.511719 407.371094 335.398438 400.664062 343.09375 C 406.910156 332.753906 418.226562 325.820312 431.1875 325.820312 C 443.167969 325.820312 453.742188 331.742188 460.214844 340.800781 C 460.652344 338.820312 460.898438 336.765625 460.898438 334.648438 C 460.898438 318.964844 448.183594 306.25 432.5 306.25 C 428.4375 306.25 424.585938 307.117188 421.089844 308.652344 C 418.484375 300.609375 410.941406 294.792969 402.03125 294.792969 C 394.191406 294.792969 387.417969 299.304688 384.121094 305.867188 C 382.488281 305.621094 380.824219 305.453125 379.121094 305.453125 C 366.214844 305.453125 355.027344 312.742188 349.410156 323.421875 C 349.351562 323.527344 349.304688 323.640625 349.25 323.75 C 359.316406 326.914062 367.371094 334.566406 371.136719 344.351562 C 364.980469 334.789062 354.265625 328.445312 342.046875 328.445312 C 322.9375 328.445312 307.445312 343.9375 307.445312 363.050781 C 307.445312 375.78125 314.339844 386.878906 324.585938 392.886719 C 322.285156 397.261719 320.964844 402.234375 320.964844 407.519531 C 320.964844 410.859375 321.511719 414.070312 322.480469 417.089844 C 322.742188 416.59375 323.023438 416.105469 323.324219 415.628906 L 330.527344 419.207031 C 331.085938 415.386719 332.554688 411.253906 337.523438 409.964844 C 337.976562 409.847656 338.035156 409.734375 338.070312 409.65625 C 338.195312 409.402344 339.175781 406.953125 335.664062 398.816406 L 333.132812 387.539062 L 342.613281 393.792969 C 345.363281 396.238281 347.226562 398.09375 348.511719 399.679688 C 348.496094 399.539062 348.472656 399.40625 348.445312 399.273438 C 346.605469 390.808594 350.5625 376.382812 361.226562 372.28125 L 373.128906 367.707031 L 366.566406 378.640625 C 361.894531 386.425781 361.167969 393.21875 364.339844 399.398438 C 365.125 400.757812 365.707031 402.066406 366.089844 403.375 C 366.925781 402.640625 367.867188 401.925781 368.929688 401.234375 L 373.054688 405.542969 L 373.871094 399.023438 L 380.402344 410.476562 C 386.0625 420.359375 387.367188 430.671875 384.265625 439.546875 C 384.644531 439.789062 385.019531 440.046875 385.410156 440.273438 L 390.847656 462.65625 L 380.714844 446.484375 C 379.640625 448.007812 378.429688 449.421875 377.089844 450.710938 L 379.738281 457.3125 L 372.015625 454.640625 C 370.347656 455.671875 368.554688 456.550781 366.667969 457.285156 L 383.632812 467.027344 L 391.214844 485.949219 L 391.214844 509.390625 L 385.484375 510.355469 L 379.328125 511.398438 L 370.5 512.871094 L 365.875 516.863281 L 433.34375 516.863281 L 432.296875 514.761719 L 411.90625 510.136719 L 406.394531 509.746094 L 400.613281 509.332031 Z M 415.296875 396.46875 C 414.792969 397.820312 413.285156 398.507812 411.929688 398 C 410.578125 397.492188 409.890625 395.984375 410.398438 394.632812 C 410.90625 393.28125 412.414062 392.59375 413.765625 393.101562 C 415.121094 393.609375 415.804688 395.117188 415.296875 396.46875 Z M 397.042969 408.585938 C 397.8125 406.523438 400.109375 405.480469 402.167969 406.25 C 404.226562 407.023438 405.273438 409.316406 404.5 411.378906 C 403.730469 413.4375 401.433594 414.480469 399.375 413.710938 C 397.316406 412.941406 396.269531 410.644531 397.042969 408.585938 Z M 399.96875 444.191406 C 401.710938 444.191406 403.410156 444.011719 405.070312 443.71875 L 403.609375 449.945312 L 397.777344 462.125 L 391.570312 442.949219 C 394.230469 443.75 397.046875 444.191406 399.96875 444.191406 Z M 421.289062 456.839844 L 399.09375 484.230469 L 398.871094 476.949219 L 408.707031 448.886719 L 409.910156 442.414062 C 415.144531 440.507812 419.667969 437.160156 423.011719 432.828125 C 423.789062 433.285156 424.585938 433.707031 425.40625 434.097656 Z M 438.949219 437.191406 C 439.667969 437.191406 440.371094 437.132812 441.074219 437.082031 L 435.929688 447.054688 L 427.398438 451.183594 L 429.714844 435.808594 C 432.636719 436.703125 435.734375 437.191406 438.949219 437.191406 Z M 417.152344 362.796875 C 415.320312 356.8125 417.175781 351.199219 426.625 345.152344 C 422.589844 350.335938 417.875 357.664062 422.375 362.175781 C 424.234375 361.296875 424.914062 358.261719 425.195312 356.535156 C 428.707031 364.152344 420.8125 378.9375 415.648438 382.378906 C 417.011719 378.914062 416.304688 370.230469 413.566406 367.816406 C 408.15625 363.039062 412.277344 353.066406 413.96875 351.265625 C 413.117188 356.640625 415.148438 361.832031 417.152344 362.796875 Z M 328.707031 356.457031 C 328.199219 357.8125 326.691406 358.496094 325.339844 357.988281 C 323.988281 357.484375 323.300781 355.976562 323.808594 354.625 C 324.316406 353.273438 325.824219 352.585938 327.175781 353.089844 C 328.527344 353.597656 329.214844 355.105469 328.707031 356.457031 Z M 379.933594 325.636719 C 380.214844 327.363281 380.894531 330.398438 382.753906 331.277344 C 387.25 326.765625 382.535156 319.4375 378.5 314.253906 C 387.949219 320.300781 389.808594 325.910156 387.976562 331.898438 C 389.976562 330.933594 392.011719 325.742188 391.15625 320.367188 C 392.851562 322.167969 396.972656 332.140625 391.5625 336.917969 C 388.824219 339.332031 388.117188 348.015625 389.480469 351.480469 C 384.3125 348.039062 376.421875 333.253906 379.933594 325.636719 Z M 387.894531 378.777344 C 386.542969 378.273438 385.855469 376.765625 386.363281 375.414062 C 386.867188 374.058594 388.375 373.375 389.726562 373.878906 C 391.082031 374.386719 391.765625 375.894531 391.261719 377.246094 C 390.753906 378.601562 389.246094 379.285156 387.894531 378.777344 Z M 387.894531 378.777344 " fill-opacity="1" fill-rule="nonzero"/></g><g clip-path="url(#2abdfbee9b)"><path fill="#ffffff" d="M 281.738281 356.175781 C 284.003906 357.027344 286.53125 355.878906 287.378906 353.609375 C 288.226562 351.339844 287.074219 348.816406 284.808594 347.96875 C 282.542969 347.121094 280.019531 348.269531 279.167969 350.539062 C 278.320312 352.804688 279.472656 355.328125 281.738281 356.175781 Z M 281.738281 356.175781 " fill-opacity="1" fill-rule="nonzero"/></g><path fill="#ffffff" d="M 430.164062 240.039062 C 431.011719 237.773438 429.863281 235.246094 427.597656 234.398438 C 425.332031 233.550781 422.804688 234.703125 421.957031 236.96875 C 421.105469 239.234375 422.257812 241.761719 424.523438 242.609375 C 426.789062 243.457031 429.316406 242.304688 430.164062 240.039062 Z M 430.164062 240.039062 " fill-opacity="1" fill-rule="nonzero"/><path fill="#ffffff" d="M 355.71875 222.917969 C 357.371094 223.539062 359.214844 222.699219 359.835938 221.046875 C 360.457031 219.394531 359.617188 217.550781 357.960938 216.929688 C 356.308594 216.3125 354.464844 217.148438 353.847656 218.804688 C 353.226562 220.457031 354.066406 222.300781 355.71875 222.917969 Z M 355.71875 222.917969 " fill-opacity="1" fill-rule="nonzero"/><path fill="#ffffff" d="M 414.492188 199.328125 C 415.339844 197.0625 414.191406 194.535156 411.921875 193.6875 C 409.65625 192.839844 407.132812 193.992188 406.285156 196.257812 C 405.4375 198.523438 406.582031 201.050781 408.847656 201.898438 C 411.117188 202.746094 413.644531 201.59375 414.492188 199.328125 Z M 414.492188 199.328125 " fill-opacity="1" fill-rule="nonzero"/><path fill="#ffffff" d="M 464.316406 346.832031 C 461.703125 351.320312 461.703125 354.683594 463.195312 359.167969 C 464.691406 363.652344 467.679688 367.765625 461.703125 369.636719 C 459.832031 361.414062 458.710938 355.804688 451.234375 350.945312 C 453.105469 353.5625 457.964844 366.273438 454.226562 369.261719 C 450.113281 372.625 445.253906 363.28125 444.878906 360.289062 C 432.320312 382.214844 440.808594 402.414062 459.035156 409.347656 C 456.058594 404.023438 454.117188 394.613281 456.640625 385.582031 C 460.566406 397.886719 463.347656 393.652344 463.347656 393.652344 C 461.53125 392.480469 456.601562 385.058594 469.695312 371.582031 C 467.652344 381.863281 471.675781 386.773438 471.675781 386.773438 C 471.675781 386.773438 480.246094 384.386719 478.964844 374.347656 C 487.019531 380.585938 479.613281 393.75 479.613281 393.75 C 479.613281 393.75 485.625 396.667969 486.40625 389.285156 C 489.765625 394.121094 487.214844 405.796875 486.265625 409.582031 C 505.03125 402.460938 513.359375 380.398438 504.703125 366.710938 C 505.824219 369.699219 500.203125 380.847656 497.210938 381.96875 C 494.21875 374.117188 497.441406 363.917969 490.714844 362.175781 C 483.984375 360.429688 484.8125 352.15625 489.421875 341.480469 C 478.503906 351.183594 481.367188 351.332031 479.5 357.6875 C 475.351562 357.6875 472.539062 348.699219 473.660156 343.09375 C 475.527344 334.496094 471.242188 320.234375 461.523438 316.496094 C 468.074219 327.414062 469.175781 337.488281 464.316406 346.832031 Z M 464.316406 346.832031 " fill-opacity="1" fill-rule="nonzero"/><path fill="#ffffff" d="M 298.585938 408.183594 C 304.839844 411.75 311.09375 415.3125 309.050781 424.308594 C 311.6875 420.050781 310.292969 415.507812 308.90625 412.167969 C 307.382812 409.425781 305.058594 408.011719 304.539062 404.742188 C 304.28125 402.539062 305.894531 399.878906 306.171875 397.546875 C 307.289062 387.078125 300.734375 381.507812 292.871094 374.46875 C 298.105469 382.34375 302.871094 389.859375 299.5625 398.316406 C 293.835938 396.886719 291 389.9375 291.089844 384.535156 C 288.980469 393.261719 290.203125 402.875 298.585938 408.183594 Z M 298.585938 408.183594 " fill-opacity="1" fill-rule="nonzero"/><g clip-path="url(#1ce15ff17c)"><path fill="#ffffff" d="M 524.523438 312.652344 C 523.332031 315.339844 520.953125 319.984375 517.5625 320.628906 C 512.152344 311.402344 522.898438 301.480469 531.644531 294.757812 C 513.738281 300.601562 508.359375 308.941406 508.8125 319.4375 C 505.96875 317.03125 504.851562 307.734375 508.503906 299.359375 C 504.988281 301.570312 494.09375 316.039062 500.878906 326.082031 C 504.304688 331.160156 501.800781 345.570312 498.128906 350.625 C 507.964844 347.207031 527.019531 326.507812 524.523438 312.652344 Z M 524.523438 312.652344 " fill-opacity="1" fill-rule="nonzero"/></g><path fill="#ffffff" d="M 343.847656 454.015625 C 341.753906 450.6875 341.746094 445.980469 345.707031 440.21875 C 340.929688 450 353.597656 454.777344 353.289062 443.25 C 352.988281 436.878906 348.132812 437.488281 344.492188 435.058594 C 338.726562 431.117188 340.851562 425.351562 344.796875 421.105469 C 342.976562 425.050781 343.886719 429.296875 347.527344 424.441406 C 350.558594 420.800781 349.421875 414.050781 354.808594 410.488281 C 350.558594 416.554688 353.289062 425.960938 356.929688 431.726562 C 360.875 438.097656 372.402344 440.523438 369.371094 449.625 C 369.15625 450.308594 368.894531 450.941406 368.605469 451.554688 C 381.050781 444.636719 386.097656 429.246094 376.597656 412.660156 C 376.289062 415.136719 372.265625 422.878906 368.859375 420.089844 C 365.761719 417.613281 369.789062 407.085938 371.335938 404.917969 C 365.140625 408.945312 364.214844 413.589844 362.664062 420.402344 C 357.710938 418.851562 360.1875 415.445312 361.425781 411.730469 C 362.664062 408.015625 362.664062 405.226562 360.496094 401.511719 C 356.472656 393.773438 357.382812 385.425781 362.808594 376.386719 C 354.757812 379.480469 351.207031 391.292969 352.753906 398.414062 C 353.6875 403.0625 351.355469 410.503906 347.917969 410.503906 C 346.371094 405.242188 348.742188 405.121094 339.699219 397.082031 C 343.519531 405.921875 344.203125 412.777344 338.628906 414.222656 C 333.054688 415.667969 335.726562 424.117188 333.25 430.617188 C 330.773438 429.6875 326.113281 420.453125 327.042969 417.976562 C 319.644531 429.679688 327.230469 448.773438 343.847656 454.015625 Z M 343.847656 454.015625 " fill-opacity="1" fill-rule="nonzero"/><path fill="#ffffff" d="M 389.496094 267.054688 C 387.800781 261.519531 388.621094 246.71875 393.152344 243.304688 C 402.117188 236.550781 398.246094 222.023438 395.835938 219.027344 C 396.511719 227.464844 392.738281 235.269531 389.519531 236.519531 C 393.078125 227.464844 392.667969 217.707031 378.746094 207.199219 C 384.378906 215.71875 389.011719 228.476562 381.496094 234.929688 C 378.722656 233.34375 378.035156 228.558594 377.804688 225.851562 C 371.449219 237.234375 381.90625 261.097656 389.496094 267.054688 Z M 389.496094 267.054688 " fill-opacity="1" fill-rule="nonzero"/></svg>